<svg width="90" height="90" viewBox="0 0 90 90" fill="none" xmlns="http://www.w3.org/2000/svg">
<g filter="url(#filter0_d)">
<path d="M20 35C20 21.1929 31.1929 10 45 10C58.8071 10 70 21.1929 70 35C70 48.8071 58.8071 60 45 60C31.1929 60 20 48.8071 20 35Z" fill="#8CB330"/>
<g clip-path="url(#clip0)">
<path fill-rule="evenodd" clip-rule="evenodd" d="M49.204 22.5245C49.2222 22.4985 49.2579 22.4922 49.2839 22.5104L51.059 23.7533C51.085 23.7715 51.0913 23.8073 51.0732 23.8333L48.6025 27.3618C49.8036 27.7455 50.6219 28.1594 50.6219 28.1594C50.6219 28.1594 48.6217 31.6 45.2291 31.6C41.8365 31.6 39.4258 28.3933 39.4258 28.3933C39.4258 28.3933 40.2806 27.8478 41.5477 27.3799L38.8377 24.1503C38.8174 24.126 38.8205 24.0898 38.8448 24.0694L40.5048 22.6765C40.5291 22.6561 40.5653 22.6593 40.5857 22.6836L44.017 26.7728C44.3108 26.7396 44.6101 26.721 44.9122 26.721C45.3463 26.721 45.7799 26.754 46.2032 26.81L49.204 22.5245ZM49.8752 31.7629C50.7805 31.1163 52.1505 29.4287 52.1505 29.4287C52.1505 29.4287 55.6497 32.2017 55.6497 38.0815C55.6497 43.9612 49.6 47.5 49.6 47.5C49.6 47.5 46.7096 44.581 46 40.8807C45.2905 37.1804 47.0497 33.0716 47.0497 33.0716C47.0497 33.0716 48.9698 32.4095 49.8752 31.7629ZM40.1249 31.7629C39.2196 31.1163 37.8496 29.4287 37.8496 29.4287C37.8496 29.4287 34.3503 32.2017 34.3503 38.0815C34.3503 43.9612 40.4 47.5 40.4 47.5C40.4 47.5 43.2905 44.581 44.0001 40.8807C44.7096 37.1804 42.9504 33.0716 42.9504 33.0716C42.9504 33.0716 41.0303 32.4095 40.1249 31.7629Z" fill="white"/>
</g>
</g>
<defs>
<filter id="filter0_d" x="0" y="0" width="90" height="90" filterUnits="userSpaceOnUse" color-interpolation-filters="sRGB">
<feFlood flood-opacity="0" result="BackgroundImageFix"/>
<feColorMatrix in="SourceAlpha" type="matrix" values="0 0 0 0 0 0 0 0 0 0 0 0 0 0 0 0 0 0 127 0"/>
<feOffset dy="10"/>
<feGaussianBlur stdDeviation="10"/>
<feColorMatrix type="matrix" values="0 0 0 0 0.54902 0 0 0 0 0.698039 0 0 0 0 0.188235 0 0 0 0.3 0"/>
<feBlend mode="normal" in2="BackgroundImageFix" result="effect1_dropShadow"/>
<feBlend mode="normal" in="SourceGraphic" in2="effect1_dropShadow" result="shape"/>
</filter>
<clipPath id="clip0">
<rect x="32.5" y="22.5" width="25" height="25" fill="white"/>
</clipPath>
</defs>
</svg>
