<svg width="90" height="90" viewBox="0 0 90 90" fill="none" xmlns="http://www.w3.org/2000/svg">
<g filter="url(#filter0_d)">
<path d="M20 35C20 21.1929 31.1929 10 45 10C58.8071 10 70 21.1929 70 35C70 48.8071 58.8071 60 45 60C31.1929 60 20 48.8071 20 35Z" fill="#5A92A5"/>
<g clip-path="url(#clip0)">
<path d="M36.8023 35.0041C36.529 35.0554 36.2959 35.0828 36.1789 35.3499C36.1075 35.5128 35.986 35.5622 35.8422 35.4084C35.6719 35.2261 35.5378 35.3091 35.4172 35.471C35.3941 35.5019 35.3774 35.5377 35.3533 35.5675C35.283 35.6542 35.2328 35.7917 35.0902 35.7491C34.9761 35.715 34.9652 35.5895 34.9383 35.487C34.922 35.4249 34.9563 35.351 34.8834 35.2883C34.8244 35.3303 34.7662 35.3777 34.7024 35.4159C34.5411 35.5126 34.4403 35.4596 34.4211 35.2786C34.4077 35.1517 34.4301 35.018 34.2361 35.0236C34.21 35.0244 34.1544 34.9625 34.1595 34.9515C34.2575 34.7406 34.0824 34.4961 34.1882 34.3191C34.5427 33.7256 34.7984 33.076 35.2355 32.5284C35.8177 31.799 36.4959 31.177 37.2317 30.6075C38.11 29.9278 39.087 29.4319 40.1052 29.0085C40.2514 28.9476 40.3516 28.8654 40.3942 28.714C40.3992 28.6952 40.4077 28.6776 40.4194 28.6621C40.886 28.071 40.9253 27.3543 41.0204 26.6511C41.078 26.2001 41.2078 25.7614 41.4047 25.3517C41.572 25.0087 41.6528 24.9853 42.0137 25.0901C42.6315 25.2695 43.2163 25.5089 43.7006 25.9483C43.8126 26.05 43.9371 26.0514 44.0788 26.0156C45.0862 25.7611 46.0691 25.8285 47.0197 26.2598C47.1738 26.3298 47.2932 26.3118 47.4477 26.2259C48.0886 25.8698 48.7345 25.5117 49.4922 25.4717C49.9155 25.4493 50.005 25.5032 50.0796 25.9277C50.1988 26.606 50.1824 27.2942 50.111 27.9755C50.0502 28.5565 50.0302 28.5479 50.5669 28.8003C52.0334 29.4899 53.4027 30.3349 54.568 31.4684C55.4326 32.3095 56.2363 33.2105 56.853 34.259C57.0374 34.5725 57.1501 34.9204 57.3657 35.2251C57.4553 35.3518 57.6484 35.6605 57.298 35.8223C57.2025 35.8664 57.2538 35.9558 57.2682 36.0288C57.3283 36.3335 57.3156 36.3447 57.0033 36.2602C56.9669 36.2503 56.9313 36.2379 56.8974 36.2274C56.8362 36.3017 56.8972 36.3622 56.9012 36.425C56.9116 36.5917 56.8265 36.6379 56.6855 36.5821C56.5894 36.5371 56.4966 36.4855 56.4076 36.4278C56.0917 36.2488 55.9365 36.2797 55.7267 36.5633C55.5597 36.7892 55.4281 36.7888 55.3566 36.5185C55.273 36.2026 55.058 36.1411 54.7941 36.0773C54.5557 36.0196 54.5543 36.1034 54.5998 36.2907C54.7295 36.8246 54.9232 37.3484 54.963 37.8973C54.9982 38.3831 55.2313 38.8229 55.2396 39.309C55.2424 39.4667 55.3922 39.4911 55.4738 39.5783C55.79 39.9163 56.1048 39.9609 56.4632 39.6313C56.5581 39.5441 56.7124 39.4434 56.8573 39.5567C56.9834 39.6553 56.9583 39.8216 56.9084 39.935C56.612 40.6099 56.7765 41.3418 56.6439 42.0228C56.3734 43.4122 55.5337 44.3647 54.1431 44.7908C53.5387 44.976 52.9433 45.0312 52.3245 44.8689C51.8421 44.7502 51.4223 44.4539 51.1488 44.0392C51.0433 43.8829 50.9395 43.8092 50.7447 43.8592C49.8979 44.0769 49.0582 43.9838 48.2273 43.7682C47.8743 43.6709 47.5029 43.6605 47.145 43.7379C45.928 44.0019 44.6947 44.0733 43.4684 43.838C42.9271 43.7396 42.3971 43.5872 41.8861 43.3831C41.6352 43.2822 41.3583 43.2651 41.0967 43.3344C40.4356 43.4831 39.7644 43.5558 39.0858 43.4672C38.914 43.4448 38.7749 43.4544 38.6553 43.6168C38.2965 44.1042 37.7802 44.3315 37.2018 44.4272C35.3475 44.7343 33.6522 43.4354 33.1143 42.0045C33.1015 41.9785 33.0913 41.9513 33.084 41.9233C32.9968 41.3051 32.811 40.7049 32.5336 40.1455C32.4384 39.9579 32.5565 39.8539 32.7509 39.8453C32.828 39.8403 32.9053 39.8479 32.98 39.8677C33.2058 39.9342 33.3448 39.836 33.5084 39.6804C33.7855 39.4167 33.9328 39.139 33.9014 38.7445C33.88 38.4752 34.0534 38.3877 34.3027 38.4928C34.3399 38.5037 34.374 38.5231 34.4023 38.5497C34.715 38.9508 35.1537 38.8436 35.5672 38.8465C35.6999 38.8474 35.7752 38.7879 35.8475 38.6829C36.0501 38.4009 36.1713 38.0687 36.198 37.7226C36.2683 36.8465 36.4601 35.9844 36.7679 35.1612C36.7821 35.1095 36.7936 35.057 36.8023 35.0041Z" fill="white"/>
</g>
</g>
<defs>
<filter id="filter0_d" x="0" y="0" width="90" height="90" filterUnits="userSpaceOnUse" color-interpolation-filters="sRGB">
<feFlood flood-opacity="0" result="BackgroundImageFix"/>
<feColorMatrix in="SourceAlpha" type="matrix" values="0 0 0 0 0 0 0 0 0 0 0 0 0 0 0 0 0 0 127 0"/>
<feOffset dy="10"/>
<feGaussianBlur stdDeviation="10"/>
<feColorMatrix type="matrix" values="0 0 0 0 0.352941 0 0 0 0 0.572549 0 0 0 0 0.647059 0 0 0 0.3 0"/>
<feBlend mode="normal" in2="BackgroundImageFix" result="effect1_dropShadow"/>
<feBlend mode="normal" in="SourceGraphic" in2="effect1_dropShadow" result="shape"/>
</filter>
<clipPath id="clip0">
<rect x="32.5" y="22.5" width="25" height="25" fill="white"/>
</clipPath>
</defs>
</svg>
