<svg width="50" height="50" viewBox="0 0 50 50" fill="none" xmlns="http://www.w3.org/2000/svg">
<g clip-path="url(#clip0)">
<path d="M16.8023 25.0041C16.529 25.0554 16.2959 25.0828 16.1789 25.3499C16.1075 25.5128 15.986 25.5622 15.8422 25.4084C15.6719 25.2261 15.5378 25.3091 15.4172 25.4709C15.3941 25.5018 15.3774 25.5376 15.3533 25.5675C15.283 25.6542 15.2328 25.7917 15.0902 25.7491C14.9761 25.715 14.9652 25.5895 14.9383 25.4869C14.922 25.4249 14.9563 25.351 14.8834 25.2883C14.8244 25.3303 14.7662 25.3777 14.7024 25.4159C14.5411 25.5126 14.4403 25.4595 14.4211 25.2786C14.4077 25.1517 14.4301 25.0179 14.2361 25.0236C14.21 25.0244 14.1544 24.9625 14.1595 24.9514C14.2575 24.7406 14.0824 24.4961 14.1882 24.3191C14.5427 23.7256 14.7984 23.076 15.2355 22.5284C15.8177 21.799 16.4959 21.1769 17.2317 20.6075C18.11 19.9278 19.087 19.4319 20.1052 19.0084C20.2514 18.9476 20.3516 18.8654 20.3942 18.714C20.3992 18.6952 20.4077 18.6776 20.4194 18.662C20.886 18.071 20.9253 17.3542 21.0204 16.6511C21.078 16.2001 21.2078 15.7614 21.4047 15.3517C21.572 15.0087 21.6528 14.9853 22.0137 15.0901C22.6315 15.2695 23.2163 15.5089 23.7006 15.9483C23.8126 16.0499 23.9371 16.0514 24.0788 16.0156C25.0862 15.7611 26.0691 15.8285 27.0197 16.2598C27.1738 16.3298 27.2932 16.3117 27.4477 16.2259C28.0886 15.8698 28.7345 15.5117 29.4922 15.4717C29.9155 15.4493 30.005 15.5032 30.0796 15.9277C30.1988 16.606 30.1824 17.2942 30.111 17.9755C30.0502 18.5565 30.0302 18.5479 30.5669 18.8003C32.0334 19.4899 33.4027 20.3349 34.568 21.4684C35.4326 22.3094 36.2363 23.2105 36.853 24.259C37.0374 24.5725 37.1501 24.9203 37.3657 25.2251C37.4553 25.3518 37.6484 25.6605 37.298 25.8223C37.2025 25.8664 37.2538 25.9558 37.2682 26.0288C37.3283 26.3335 37.3156 26.3447 37.0033 26.2602C36.9669 26.2503 36.9313 26.2379 36.8974 26.2274C36.8362 26.3017 36.8972 26.3621 36.9012 26.425C36.9116 26.5916 36.8265 26.6379 36.6855 26.582C36.5894 26.537 36.4966 26.4855 36.4076 26.4278C36.0917 26.2488 35.9365 26.2797 35.7267 26.5633C35.5597 26.7892 35.4281 26.7887 35.3566 26.5185C35.273 26.2026 35.058 26.1411 34.7941 26.0773C34.5557 26.0196 34.5543 26.1034 34.5998 26.2907C34.7295 26.8246 34.9232 27.3483 34.963 27.8973C34.9982 28.3831 35.2313 28.8229 35.2396 29.309C35.2424 29.4667 35.3922 29.4911 35.4738 29.5783C35.79 29.9163 36.1048 29.9609 36.4632 29.6313C36.5581 29.544 36.7124 29.4434 36.8573 29.5567C36.9834 29.6553 36.9583 29.8216 36.9084 29.935C36.612 30.6099 36.7765 31.3418 36.6439 32.0228C36.3734 33.4121 35.5337 34.3647 34.1431 34.7908C33.5387 34.976 32.9433 35.0312 32.3245 34.8689C31.8421 34.7502 31.4223 34.4539 31.1488 34.0391C31.0433 33.8829 30.9395 33.8092 30.7447 33.8592C29.8979 34.0769 29.0582 33.9838 28.2273 33.7682C27.8743 33.6708 27.5029 33.6604 27.145 33.7379C25.928 34.0018 24.6947 34.0733 23.4684 33.838C22.9271 33.7396 22.3971 33.5872 21.8861 33.3831C21.6352 33.2821 21.3583 33.265 21.0967 33.3343C20.4356 33.4831 19.7644 33.5558 19.0858 33.4672C18.914 33.4448 18.7749 33.4544 18.6553 33.6168C18.2965 34.1041 17.7802 34.3314 17.2018 34.4272C15.3475 34.7343 13.6522 33.4353 13.1143 32.0045C13.1015 31.9785 13.0913 31.9513 13.084 31.9233C12.9968 31.3051 12.811 30.7048 12.5336 30.1455C12.4384 29.9579 12.5565 29.8539 12.7509 29.8453C12.828 29.8403 12.9053 29.8479 12.98 29.8677C13.2058 29.9341 13.3448 29.836 13.5084 29.6804C13.7855 29.4167 13.9328 29.1389 13.9014 28.7444C13.88 28.4752 14.0534 28.3877 14.3027 28.4928C14.3399 28.5037 14.374 28.5231 14.4023 28.5497C14.715 28.9508 15.1537 28.8436 15.5672 28.8465C15.6999 28.8474 15.7752 28.7879 15.8475 28.6828C16.0501 28.4009 16.1713 28.0687 16.198 27.7226C16.2683 26.8465 16.4601 25.9844 16.7679 25.1612C16.7821 25.1094 16.7936 25.057 16.8023 25.0041Z" fill="#5A92A5"/>
</g>
<defs>
<clipPath id="clip0">
<rect x="12.5" y="12.5" width="25" height="25" fill="white"/>
</clipPath>
</defs>
</svg>
