<svg width="90" height="90" viewBox="0 0 90 90" fill="none" xmlns="http://www.w3.org/2000/svg">
<g filter="url(#filter0_d)">
<path d="M20 35C20 21.1929 31.1929 10 45 10C58.8071 10 70 21.1929 70 35C70 48.8071 58.8071 60 45 60C31.1929 60 20 48.8071 20 35Z" fill="#0F6AC0"/>
<g clip-path="url(#clip0)">
<path fill-rule="evenodd" clip-rule="evenodd" d="M46.2127 34.9454C46.3822 34.842 46.5259 34.6255 46.6418 34.3849C48.1675 35.0084 49.2396 36.4819 49.2396 38.2002C49.2396 40.4829 47.3475 42.3334 45.0135 42.3334C44.0554 42.3334 43.1718 42.0216 42.4629 41.496C42.2304 41.3859 42.0391 41.2802 41.8826 41.1936C41.6397 41.0594 41.4805 40.9713 41.3808 40.9851C41.0894 41.0253 41.174 41.2935 41.2509 41.5371C41.3031 41.7025 41.3518 41.8567 41.2764 41.9203C41.1976 41.9869 40.9423 41.7435 40.644 41.4591C40.238 41.0719 39.7522 40.6088 39.5232 40.7479C39.3421 40.8579 39.5179 41.1563 39.7332 41.5215L39.7491 41.5486C39.84 41.703 39.9454 41.8603 40.0416 42.0037C40.237 42.2953 40.3944 42.5302 40.3157 42.57C40.2205 42.618 39.5571 42.1703 38.998 41.5486C38.7823 41.3087 38.5733 41.0487 38.3791 40.807V40.807C37.9539 40.278 37.5997 39.8373 37.4009 39.8895C37.1617 39.9523 37.3426 40.4457 37.6085 40.9204C37.7328 41.1424 37.8791 41.3685 38.0057 41.5643V41.5643C38.2026 41.8687 38.3521 42.0997 38.2979 42.1281C38.2247 42.1664 37.5811 41.5388 37.144 40.7479C36.8843 40.2781 36.6663 39.759 36.4898 39.3387C36.2984 38.8829 36.1558 38.5434 36.0619 38.5092C35.7357 38.3905 35.7357 39.0556 35.8665 40.0155C35.8836 40.1408 35.909 40.2721 35.9403 40.4059C37.2091 44.511 41.1066 47.5 45.7179 47.5C51.3584 47.5 55.9308 43.0279 55.9308 37.5113C55.9308 32.2607 51.7888 27.9564 46.5261 27.5534C46.5328 27.3061 46.6619 26.8156 46.6619 26.8156C46.6619 26.8156 47.5909 24.5677 47.64 24.0874C47.6433 24.0555 47.6471 24.0209 47.6513 23.984C47.7091 23.465 47.8168 22.5 46.9866 22.5C46.5433 22.5 46.3371 22.8298 46.1013 23.207V23.207C46.0108 23.3518 45.9159 23.5036 45.8015 23.6464C44.9779 24.675 43.5929 25.9594 42.8076 26.6437C41.1478 28.09 39.5192 29.2787 38.5694 29.972L38.5694 29.972C38.1374 30.2873 37.8459 30.5001 37.7556 30.5881C37.0756 31.251 34.6375 35.6487 34.6375 35.6487C34.6375 35.6487 33.8491 37.0597 34.1293 37.3458C34.4096 37.632 35.0854 37.5664 35.0854 37.5664C35.0854 37.5664 44.1646 35.4835 44.9774 35.3193C45.1962 35.275 45.3507 35.2495 45.4693 35.2299C45.7914 35.1768 45.8492 35.1672 46.2127 34.9454ZM39.7935 32.2688C39.3061 32.732 38.4979 33.8377 38.4979 33.8377C38.4979 33.8377 40 33.9302 40.8273 33.1438C41.6546 32.3574 41.4651 31.0172 41.4651 31.0172C41.4651 31.0172 40.2808 31.8055 39.7935 32.2688Z" fill="white"/>
</g>
</g>
<defs>
<filter id="filter0_d" x="0" y="0" width="90" height="90" filterUnits="userSpaceOnUse" color-interpolation-filters="sRGB">
<feFlood flood-opacity="0" result="BackgroundImageFix"/>
<feColorMatrix in="SourceAlpha" type="matrix" values="0 0 0 0 0 0 0 0 0 0 0 0 0 0 0 0 0 0 127 0"/>
<feOffset dy="10"/>
<feGaussianBlur stdDeviation="10"/>
<feColorMatrix type="matrix" values="0 0 0 0 0.0588235 0 0 0 0 0.415686 0 0 0 0 0.752941 0 0 0 0.3 0"/>
<feBlend mode="normal" in2="BackgroundImageFix" result="effect1_dropShadow"/>
<feBlend mode="normal" in="SourceGraphic" in2="effect1_dropShadow" result="shape"/>
</filter>
<clipPath id="clip0">
<rect x="32.5" y="22.5" width="25" height="25" fill="white"/>
</clipPath>
</defs>
</svg>
