<svg width="90" height="90" viewBox="0 0 90 90" fill="none" xmlns="http://www.w3.org/2000/svg">
<g filter="url(#filter0_d)">
<path d="M20 35C20 21.1929 31.1929 10 45 10C58.8071 10 70 21.1929 70 35C70 48.8071 58.8071 60 45 60C31.1929 60 20 48.8071 20 35Z" fill="#AAACB8"/>
<g clip-path="url(#clip0)">
<path d="M52.557 34.4573C52.3301 34.2905 52.1373 34.2553 51.9609 34.1861C51.8693 34.1554 51.7848 34.1068 51.7122 34.0431C51.6397 33.9794 51.5805 33.9019 51.5382 33.815C51.3741 33.4661 51.2252 33.1078 51.0318 32.7757C50.8847 32.5232 50.8984 32.2979 50.9824 32.0361C51.1252 31.5911 51.1152 31.5309 50.6587 31.5125C49.9582 31.4843 49.6198 30.9457 49.1586 30.5758C48.8919 30.3618 48.6559 30.1229 48.6665 29.7398C48.6712 29.568 48.5575 29.5311 48.4401 29.6081C48.0649 29.8544 47.7693 29.7129 47.4893 29.4445C47.3711 29.3311 47.2645 29.3511 47.1323 29.4419C46.7402 29.7112 46.264 29.8098 45.8565 30.0531C45.7174 30.1361 45.5756 30.0265 45.4384 29.9954C45.2834 29.9602 45.1824 29.9783 45.2047 30.163C45.2406 30.4588 45.0774 30.6633 44.8867 30.8436C44.4352 31.2705 44.0359 31.7342 43.7354 32.2828C43.6596 32.4239 43.5541 32.5469 43.4262 32.6433C43.2983 32.7397 43.1511 32.8072 42.9946 32.8413C42.6866 32.9155 42.3947 33.0546 42.074 33.0773C41.9452 33.0864 41.922 33.1674 41.9077 33.2715C41.8474 33.7109 41.7817 34.1506 41.7993 34.5953C41.8145 34.9799 41.6767 35.2554 41.3281 35.4474C40.3837 35.9675 39.8587 36.8169 39.5365 37.8115C39.4515 38.0804 39.2807 38.314 39.0503 38.4766C38.6279 38.7806 38.1918 39.0656 37.7691 39.3694C37.5234 39.546 37.2522 39.5149 36.9879 39.4818C36.7011 39.4435 36.4115 39.4301 36.1224 39.4418C35.9725 39.4557 35.8217 39.4263 35.6879 39.3572C35.5541 39.2882 35.4428 39.1822 35.3673 39.052C35.2757 38.9083 35.1688 38.7937 34.9901 38.7672C34.9512 38.7631 34.9144 38.7476 34.8844 38.7226C34.3603 38.2021 33.7492 37.7642 33.3431 37.1316C33.1192 36.7827 33.1248 36.3971 33.2369 36.0146C33.3918 35.4861 33.4239 34.9737 33.1172 34.483C33.0591 34.39 33.0939 34.3032 33.1535 34.2154C33.2344 34.0962 33.2958 33.9639 33.3739 33.8425C33.5004 33.6458 33.5135 33.4737 33.311 33.3117C33.194 33.2181 33.1877 33.0812 33.2228 32.9395C33.3411 32.4622 33.4533 31.9835 33.5739 31.5068C33.6195 31.3385 33.6979 31.1809 33.8046 31.043C34.0292 30.7411 34.2625 30.4451 34.4739 30.1342C34.6817 29.8305 34.9661 29.5871 35.2983 29.4288C35.5123 29.323 35.6227 29.1673 35.648 28.9116C35.7316 28.0666 35.7482 27.2184 35.7926 26.3719C35.8441 25.3905 35.953 24.4113 35.9201 23.4252C35.9084 23.076 36.2776 22.7683 36.6197 22.8007C36.7978 22.8176 36.8591 22.9416 36.8752 23.0999C36.9314 23.6561 36.9731 24.2143 37.0465 24.7682C37.159 25.617 37.2312 26.4698 37.3592 27.3325C37.4225 27.1696 37.506 27.0114 37.545 26.8429C37.63 26.4757 37.8653 26.2354 38.1667 26.0438C38.5327 25.8112 38.9108 25.5965 39.2665 25.3493C39.6927 25.0532 40.1558 25.0137 40.6486 25.0745C41.2578 25.1497 41.2589 25.1454 41.5131 24.6074C41.5707 24.4853 41.6308 24.3636 41.6764 24.2369C41.8127 23.8587 42.0598 23.6022 42.4477 23.4758C42.9855 23.3007 43.4503 22.9812 43.9225 22.684C44.1313 22.5525 44.3351 22.4785 44.5737 22.5055C45.1405 22.5698 45.7098 22.5608 46.278 22.5577C46.6142 22.5559 46.8499 22.6895 47.0194 22.969C47.1393 23.167 47.2686 23.3593 47.3867 23.5583C47.4744 23.7064 47.5918 23.7448 47.7533 23.6983C47.9946 23.629 48.2392 23.5682 48.4605 23.4468C48.5187 23.4122 48.5858 23.3958 48.6533 23.3998C48.7208 23.4038 48.7856 23.4279 48.8393 23.469C49.2771 23.7501 49.7172 24.0275 50.1556 24.3078C50.2719 24.3821 50.3809 24.4791 50.4162 24.6092C50.4954 24.9004 50.6941 24.8633 50.8884 24.7889C51.2392 24.6546 51.5821 24.4994 51.9277 24.3515C52.4694 24.1196 53.0047 24.1475 53.493 24.465C54.0028 24.7964 54.4968 25.1542 55.0536 25.4021C55.3446 25.5316 55.5289 25.7352 55.6062 26.0276C55.8254 26.8565 56.0329 27.6885 56.2393 28.5207C56.2897 28.7237 56.1904 28.9005 56.0925 29.0664C55.9803 29.2689 55.8525 29.4625 55.7104 29.6453C55.5607 29.8272 55.6007 29.9505 55.7695 30.0748C55.8876 30.174 56.0106 30.2671 56.1382 30.3538C56.3075 30.4504 56.4371 30.6038 56.504 30.7869C56.6447 31.1657 56.7756 31.5479 56.8968 31.9338C56.9129 31.9942 56.9168 32.0572 56.9084 32.1192C56.8999 32.1812 56.8792 32.2409 56.8475 32.2948C56.5025 32.972 56.1711 33.6561 55.83 34.3354C55.7819 34.4311 55.8394 34.4797 55.885 34.5381C56.1166 34.8343 56.3319 35.1461 56.588 35.4193C56.784 35.6284 56.8426 35.8507 56.7746 36.1066C56.6509 36.5722 56.5086 37.033 56.3726 37.4953C56.3412 37.6021 56.2555 37.6697 56.1812 37.7452C55.8905 38.0402 55.5771 38.3148 55.3559 38.6722C55.2742 38.8042 55.1419 38.863 54.997 38.8954C54.9136 38.9199 54.8275 38.9342 54.7407 38.9378C54.1838 38.9216 53.8213 39.1273 53.7704 39.734C53.755 39.917 53.6009 40.0215 53.4408 40.0658C52.9244 40.2085 52.4764 40.5676 51.9089 40.5473C51.8033 40.5436 51.7497 40.6084 51.7542 40.7133C51.7634 40.9281 51.6569 41.1024 51.5585 41.279C51.3053 41.7337 50.9699 42.0337 50.3963 41.9397C50.125 41.8952 49.8618 41.8835 49.8145 42.2854C49.7995 42.4122 49.6352 42.5283 49.5261 42.6359C49.2653 42.8928 49.0366 43.2496 48.7209 43.3666C48.3318 43.5109 48.3238 43.7916 48.2274 44.0708C48.2022 44.1435 48.1865 44.2283 48.1385 44.2829C47.7928 44.6763 48.0559 45.0347 48.2025 45.3933C48.2687 45.5553 48.5055 45.4656 48.5954 45.6006C48.7112 45.7747 48.8326 45.6849 48.9876 45.6711C49.6429 45.6127 50.3354 45.3955 50.8988 45.9592C51.0161 46.0766 51.089 46.0514 51.1588 45.9122C51.3409 45.5484 52.1088 45.4794 52.384 45.8525C52.5392 46.0627 52.474 46.3426 52.4286 46.5826C52.3566 46.9628 51.905 47.236 51.5339 47.1392C51.3464 47.0903 51.2295 47.1558 51.0659 47.2454C50.6334 47.4921 50.1225 47.5629 49.6393 47.4431C49.3604 47.3727 49.0945 47.25 48.8244 47.1467C48.7444 47.1161 48.6509 47.0892 48.614 47.0036C48.5247 46.7963 48.4378 46.7648 48.1859 46.8325C47.9214 46.9036 47.6279 46.6966 47.4433 46.4784C47.3327 46.3477 47.2299 46.303 47.0784 46.2545C46.7818 46.1596 46.4488 46.0652 46.462 45.6414C46.4652 45.5398 46.4139 45.496 46.3149 45.5432C46.1779 45.6086 46.0444 45.5676 45.9223 45.5159C45.5072 45.3336 45.1104 45.1123 44.7372 44.8548C44.6263 44.7742 44.551 44.6536 44.5275 44.5185C44.5008 44.3665 44.4643 44.2164 44.4184 44.0691C44.2815 43.7035 44.3307 43.3777 44.568 43.0668C44.638 42.9624 44.6878 42.8458 44.7149 42.7231C44.8265 42.3136 45.0112 41.9738 45.45 41.8323C45.6665 41.7625 45.7275 41.6009 45.7027 41.3761C45.6842 41.146 45.6801 40.9149 45.6904 40.6843C45.6905 40.6168 45.7103 40.5507 45.7474 40.4943C45.993 40.1608 46.2444 39.8315 46.4969 39.5032C46.5414 39.4392 46.604 39.3901 46.6766 39.362C46.7493 39.3339 46.8287 39.3283 46.9046 39.3457C46.9812 39.3549 47.0586 39.3573 47.1357 39.3528C47.5813 39.3539 47.5813 39.3536 47.6315 38.9231C47.6351 38.8654 47.6417 38.8079 47.6514 38.7509C47.7365 38.3747 48.7623 37.6474 49.1473 37.6882C49.6009 37.7364 49.5542 37.7009 49.7763 37.3205C50.1058 36.7561 50.6388 36.3552 51.118 35.9173C51.1655 35.8739 51.2651 35.8781 51.3408 35.8769C51.3673 35.8796 51.3941 35.8769 51.4195 35.869C51.445 35.861 51.4685 35.8481 51.4888 35.8308C51.5091 35.8136 51.5257 35.7924 51.5377 35.7686C51.5496 35.7448 51.5566 35.7188 51.5583 35.6923C51.6551 35.1238 51.9245 34.6822 52.557 34.4573Z" fill="white"/>
</g>
</g>
<defs>
<filter id="filter0_d" x="0" y="0" width="90" height="90" filterUnits="userSpaceOnUse" color-interpolation-filters="sRGB">
<feFlood flood-opacity="0" result="BackgroundImageFix"/>
<feColorMatrix in="SourceAlpha" type="matrix" values="0 0 0 0 0 0 0 0 0 0 0 0 0 0 0 0 0 0 127 0"/>
<feOffset dy="10"/>
<feGaussianBlur stdDeviation="10"/>
<feColorMatrix type="matrix" values="0 0 0 0 0.666667 0 0 0 0 0.67451 0 0 0 0 0.721569 0 0 0 0.3 0"/>
<feBlend mode="normal" in2="BackgroundImageFix" result="effect1_dropShadow"/>
<feBlend mode="normal" in="SourceGraphic" in2="effect1_dropShadow" result="shape"/>
</filter>
<clipPath id="clip0">
<rect x="32.5" y="22.5" width="25" height="25" fill="white"/>
</clipPath>
</defs>
</svg>
