<svg width="50" height="50" viewBox="0 0 50 50" fill="none" xmlns="http://www.w3.org/2000/svg">
<g clip-path="url(#clip0)">
<path d="M32.557 24.4573C32.3301 24.2905 32.1373 24.2553 31.9609 24.1861C31.8693 24.1554 31.7848 24.1068 31.7122 24.0431C31.6397 23.9794 31.5805 23.9019 31.5382 23.815C31.3741 23.4661 31.2252 23.1078 31.0318 22.7757C30.8847 22.5232 30.8984 22.2979 30.9824 22.0361C31.1252 21.5911 31.1152 21.5309 30.6587 21.5125C29.9582 21.4843 29.6198 20.9457 29.1586 20.5758C28.8919 20.3618 28.6559 20.1229 28.6665 19.7398C28.6712 19.568 28.5575 19.5311 28.4401 19.6081C28.0649 19.8544 27.7693 19.7129 27.4893 19.4445C27.3711 19.3311 27.2645 19.3511 27.1323 19.4419C26.7402 19.7112 26.264 19.8098 25.8565 20.0531C25.7174 20.1361 25.5756 20.0265 25.4384 19.9954C25.2834 19.9602 25.1824 19.9783 25.2047 20.163C25.2406 20.4588 25.0774 20.6633 24.8867 20.8436C24.4352 21.2705 24.0359 21.7342 23.7354 22.2828C23.6596 22.4239 23.5541 22.5469 23.4262 22.6433C23.2983 22.7397 23.1511 22.8072 22.9946 22.8413C22.6866 22.9155 22.3947 23.0546 22.074 23.0773C21.9452 23.0864 21.922 23.1674 21.9077 23.2715C21.8474 23.7109 21.7817 24.1506 21.7993 24.5953C21.8145 24.9799 21.6767 25.2554 21.3281 25.4474C20.3837 25.9675 19.8587 26.8169 19.5365 27.8115C19.4515 28.0804 19.2807 28.314 19.0503 28.4766C18.6279 28.7806 18.1918 29.0656 17.7691 29.3694C17.5234 29.546 17.2522 29.5149 16.9879 29.4818C16.7011 29.4435 16.4115 29.4301 16.1224 29.4418C15.9725 29.4557 15.8217 29.4263 15.6879 29.3572C15.5541 29.2882 15.4428 29.1822 15.3673 29.052C15.2757 28.9083 15.1688 28.7937 14.9901 28.7672C14.9512 28.7631 14.9144 28.7476 14.8844 28.7226C14.3603 28.2021 13.7492 27.7642 13.3431 27.1316C13.1192 26.7827 13.1248 26.3971 13.2369 26.0146C13.3918 25.4861 13.4239 24.9737 13.1172 24.483C13.0591 24.39 13.0939 24.3032 13.1535 24.2154C13.2344 24.0962 13.2958 23.9639 13.3739 23.8425C13.5004 23.6458 13.5135 23.4737 13.311 23.3117C13.194 23.2181 13.1877 23.0812 13.2228 22.9395C13.3411 22.4622 13.4533 21.9835 13.5739 21.5068C13.6195 21.3385 13.6979 21.1809 13.8046 21.043C14.0292 20.7411 14.2625 20.4451 14.4739 20.1342C14.6817 19.8305 14.9661 19.5871 15.2983 19.4288C15.5123 19.323 15.6227 19.1673 15.648 18.9116C15.7316 18.0666 15.7482 17.2184 15.7926 16.3719C15.8441 15.3905 15.953 14.4113 15.9201 13.4252C15.9084 13.076 16.2776 12.7683 16.6197 12.8007C16.7978 12.8176 16.8591 12.9416 16.8752 13.0999C16.9314 13.6561 16.9731 14.2143 17.0465 14.7682C17.159 15.617 17.2312 16.4698 17.3592 17.3325C17.4225 17.1696 17.506 17.0114 17.545 16.8429C17.63 16.4757 17.8653 16.2354 18.1667 16.0438C18.5327 15.8112 18.9108 15.5965 19.2665 15.3493C19.6927 15.0532 20.1558 15.0137 20.6486 15.0745C21.2578 15.1497 21.2589 15.1454 21.5131 14.6074C21.5707 14.4853 21.6308 14.3636 21.6764 14.2369C21.8127 13.8587 22.0598 13.6022 22.4477 13.4758C22.9855 13.3007 23.4503 12.9812 23.9225 12.684C24.1313 12.5525 24.3351 12.4785 24.5737 12.5055C25.1405 12.5698 25.7098 12.5608 26.278 12.5577C26.6142 12.5559 26.8499 12.6895 27.0194 12.969C27.1393 13.167 27.2686 13.3593 27.3867 13.5583C27.4744 13.7064 27.5918 13.7448 27.7533 13.6983C27.9946 13.629 28.2392 13.5682 28.4605 13.4468C28.5187 13.4122 28.5858 13.3958 28.6533 13.3998C28.7208 13.4038 28.7856 13.4279 28.8393 13.469C29.2771 13.7501 29.7172 14.0275 30.1556 14.3078C30.2719 14.3821 30.3809 14.4791 30.4162 14.6092C30.4954 14.9004 30.6941 14.8633 30.8884 14.7889C31.2392 14.6546 31.5821 14.4994 31.9277 14.3515C32.4694 14.1196 33.0047 14.1475 33.493 14.465C34.0028 14.7964 34.4968 15.1542 35.0536 15.4021C35.3446 15.5316 35.5289 15.7352 35.6062 16.0276C35.8254 16.8565 36.0329 17.6885 36.2393 18.5207C36.2897 18.7237 36.1904 18.9005 36.0925 19.0664C35.9803 19.2689 35.8525 19.4625 35.7104 19.6453C35.5607 19.8272 35.6007 19.9505 35.7695 20.0748C35.8876 20.174 36.0106 20.2671 36.1382 20.3538C36.3075 20.4504 36.4371 20.6038 36.504 20.7869C36.6447 21.1657 36.7756 21.5479 36.8968 21.9338C36.9129 21.9942 36.9168 22.0572 36.9084 22.1192C36.8999 22.1812 36.8792 22.2409 36.8475 22.2948C36.5025 22.972 36.1711 23.6561 35.83 24.3354C35.7819 24.4311 35.8394 24.4797 35.885 24.5381C36.1166 24.8343 36.3319 25.1461 36.588 25.4193C36.784 25.6284 36.8426 25.8507 36.7746 26.1066C36.6509 26.5722 36.5086 27.033 36.3726 27.4953C36.3412 27.6021 36.2555 27.6697 36.1812 27.7452C35.8905 28.0402 35.5771 28.3148 35.3559 28.6722C35.2742 28.8042 35.1419 28.863 34.997 28.8954C34.9136 28.9199 34.8275 28.9342 34.7407 28.9378C34.1838 28.9216 33.8213 29.1273 33.7704 29.734C33.755 29.917 33.6009 30.0215 33.4408 30.0658C32.9244 30.2085 32.4764 30.5676 31.9089 30.5473C31.8033 30.5436 31.7497 30.6084 31.7542 30.7133C31.7634 30.9281 31.6569 31.1024 31.5585 31.279C31.3053 31.7337 30.9699 32.0337 30.3963 31.9397C30.125 31.8952 29.8618 31.8835 29.8145 32.2854C29.7995 32.4122 29.6352 32.5283 29.5261 32.6359C29.2653 32.8928 29.0366 33.2496 28.7209 33.3666C28.3318 33.5109 28.3238 33.7916 28.2274 34.0708C28.2022 34.1435 28.1865 34.2283 28.1385 34.2829C27.7928 34.6763 28.0559 35.0347 28.2025 35.3933C28.2687 35.5553 28.5055 35.4656 28.5954 35.6006C28.7112 35.7747 28.8326 35.6849 28.9876 35.6711C29.6429 35.6127 30.3354 35.3955 30.8988 35.9592C31.0161 36.0766 31.089 36.0514 31.1588 35.9122C31.3409 35.5484 32.1088 35.4794 32.384 35.8525C32.5392 36.0627 32.474 36.3426 32.4286 36.5826C32.3566 36.9628 31.905 37.236 31.5339 37.1392C31.3464 37.0903 31.2295 37.1558 31.0659 37.2454C30.6334 37.4921 30.1225 37.5629 29.6393 37.4431C29.3604 37.3727 29.0945 37.25 28.8244 37.1467C28.7444 37.1161 28.6509 37.0892 28.614 37.0036C28.5247 36.7963 28.4378 36.7648 28.1859 36.8325C27.9214 36.9036 27.6279 36.6966 27.4433 36.4784C27.3327 36.3477 27.2299 36.303 27.0784 36.2545C26.7818 36.1596 26.4488 36.0652 26.462 35.6414C26.4652 35.5398 26.4139 35.496 26.3149 35.5432C26.1779 35.6086 26.0444 35.5676 25.9223 35.5159C25.5072 35.3336 25.1104 35.1123 24.7372 34.8548C24.6263 34.7742 24.551 34.6536 24.5275 34.5185C24.5008 34.3665 24.4643 34.2164 24.4184 34.0691C24.2815 33.7035 24.3307 33.3777 24.568 33.0668C24.638 32.9624 24.6878 32.8458 24.7149 32.7231C24.8265 32.3136 25.0112 31.9738 25.45 31.8323C25.6665 31.7625 25.7275 31.6009 25.7027 31.3761C25.6842 31.146 25.6801 30.9149 25.6904 30.6843C25.6905 30.6168 25.7103 30.5507 25.7474 30.4943C25.993 30.1608 26.2444 29.8315 26.4969 29.5032C26.5414 29.4392 26.604 29.3901 26.6766 29.362C26.7493 29.3339 26.8287 29.3283 26.9046 29.3457C26.9812 29.3549 27.0586 29.3573 27.1357 29.3528C27.5813 29.3539 27.5813 29.3536 27.6315 28.9231C27.6351 28.8654 27.6417 28.8079 27.6514 28.7509C27.7365 28.3747 28.7623 27.6474 29.1473 27.6882C29.6009 27.7364 29.5542 27.7009 29.7763 27.3205C30.1058 26.7561 30.6388 26.3552 31.118 25.9173C31.1655 25.8739 31.2651 25.8781 31.3408 25.8769C31.3673 25.8796 31.3941 25.8769 31.4195 25.869C31.445 25.861 31.4685 25.8481 31.4888 25.8308C31.5091 25.8136 31.5257 25.7924 31.5377 25.7686C31.5496 25.7448 31.5566 25.7188 31.5583 25.6923C31.6551 25.1238 31.9245 24.6822 32.557 24.4573Z" fill="#AAACB8"/>
</g>
<defs>
<clipPath id="clip0">
<rect x="12.5" y="12.5" width="25" height="25" fill="white"/>
</clipPath>
</defs>
</svg>
