<svg width="90" height="90" viewBox="0 0 90 90" fill="none" xmlns="http://www.w3.org/2000/svg">
<g filter="url(#filter0_d)">
<path d="M20 35C20 21.1929 31.1929 10 45 10C58.8071 10 70 21.1929 70 35C70 48.8071 58.8071 60 45 60C31.1929 60 20 48.8071 20 35Z" fill="#DD7748"/>
<g clip-path="url(#clip0)">
<path fill-rule="evenodd" clip-rule="evenodd" d="M38.0061 43.992C37.9993 43.992 37.9946 43.9853 37.9968 43.9789L44.3794 25.944C44.3808 25.9401 44.3845 25.9375 44.3887 25.9375H51.2023C51.2064 25.9375 51.2102 25.9401 51.2115 25.9441L57.4995 43.9789C57.5017 43.9853 57.4969 43.992 57.4902 43.992H38.1979H38.0061ZM32.5098 44.0625C32.503 44.0625 32.4982 44.0557 32.5006 44.0493L37.2536 31.3602C37.255 31.3563 37.2587 31.3538 37.2628 31.3538H41.3925C41.3993 31.3538 41.4041 31.3606 41.4017 31.367L36.8058 44.0561C36.8044 44.0599 36.8007 44.0625 36.7966 44.0625H32.5098Z" fill="white"/>
</g>
</g>
<defs>
<filter id="filter0_d" x="0" y="0" width="90" height="90" filterUnits="userSpaceOnUse" color-interpolation-filters="sRGB">
<feFlood flood-opacity="0" result="BackgroundImageFix"/>
<feColorMatrix in="SourceAlpha" type="matrix" values="0 0 0 0 0 0 0 0 0 0 0 0 0 0 0 0 0 0 127 0"/>
<feOffset dy="10"/>
<feGaussianBlur stdDeviation="10"/>
<feColorMatrix type="matrix" values="0 0 0 0 0.866667 0 0 0 0 0.466667 0 0 0 0 0.282353 0 0 0 0.3 0"/>
<feBlend mode="normal" in2="BackgroundImageFix" result="effect1_dropShadow"/>
<feBlend mode="normal" in="SourceGraphic" in2="effect1_dropShadow" result="shape"/>
</filter>
<clipPath id="clip0">
<rect x="32.5" y="22.5" width="25" height="25" fill="white"/>
</clipPath>
</defs>
</svg>
