<svg width="90" height="90" viewBox="0 0 90 90" fill="none" xmlns="http://www.w3.org/2000/svg">
<g filter="url(#filter0_d)">
<path d="M20 35C20 21.1929 31.1929 10 45 10C58.8071 10 70 21.1929 70 35C70 48.8071 58.8071 60 45 60C31.1929 60 20 48.8071 20 35Z" fill="#FFC5E6"/>
<g clip-path="url(#clip0)">
<path d="M34.1501 36.5208C34.7301 36.5235 34.7083 36.5246 34.6775 35.9496C34.6346 35.1462 34.7419 34.353 34.9251 33.5702C35.2292 32.2712 35.7865 31.0985 36.6528 30.0766C36.8554 29.8375 36.8161 29.5248 36.8351 29.245C36.9276 27.8823 37.1401 26.5459 37.5779 25.2471C37.7911 24.6143 37.9984 23.9861 38.4151 23.447C38.6072 23.1984 38.7667 23.1147 39.1136 23.2221C40.5962 23.6812 41.8326 24.5316 42.9891 25.5266C43.1812 25.6919 43.3168 25.9057 43.4772 26.0983C43.6544 26.3109 43.835 26.4174 44.1487 26.2834C45.0314 25.9064 45.952 25.672 46.9263 25.7169C47.7535 25.7551 48.4587 26.0868 49.0652 26.6261C49.7025 27.1928 50.1715 27.8682 50.3661 28.7225C50.4786 29.2164 51.0937 29.6133 51.5984 29.6303C52.6116 29.6644 53.6124 29.7762 54.5976 30.0525C55.5151 30.3098 56.3984 30.6232 57.1925 31.1573C57.5149 31.3742 57.5776 31.5847 57.4096 31.9215C57.0397 32.663 56.6657 33.4052 56.1736 34.0742C55.5351 34.9423 54.7837 35.7027 53.8527 36.2599C53.558 36.4363 53.4085 36.6545 53.381 36.9939C53.3101 37.8681 52.9803 38.6677 52.6702 39.4783C52.0665 41.0568 50.887 42.1582 49.6578 43.224C49.4324 43.4194 49.391 43.7086 49.2327 43.9374C49.1597 44.0429 49.3283 44.0737 49.3994 44.1244C49.9246 44.4986 50.2844 45.0149 50.5578 45.5788C50.7531 45.9819 50.6057 46.3251 50.2371 46.5448C49.8105 46.8026 49.3008 46.8859 48.8143 46.7773C47.5972 46.5259 46.5066 46.0243 45.6276 45.121C45.5171 45.0075 45.3942 45.0104 45.2548 45.0318C43.9849 45.226 42.7407 45.1612 41.5199 44.716C41.1871 44.5946 40.8341 44.525 40.5157 44.3595C40.4109 44.3051 40.3376 44.3428 40.2576 44.4142C39.0397 45.5006 37.5864 45.7037 36.0381 45.5163C35.8343 45.4916 35.6311 45.391 35.447 45.2902C35.1423 45.1234 35.04 44.8032 35.1286 44.4363C35.2797 43.8102 35.7677 43.4678 36.2402 43.1171C36.583 42.8627 36.9735 42.6903 37.37 42.5365C37.5333 42.4731 37.5958 42.4261 37.4362 42.2693C36.7159 41.5621 36.0811 40.7883 35.6458 39.8676C35.6209 39.8163 35.585 39.7711 35.5406 39.7354C35.4961 39.6997 35.4443 39.6743 35.3889 39.6611C34.3739 39.326 33.4722 38.7152 32.7845 37.8971C32.3263 37.3627 32.4211 36.9668 33.072 36.6928C33.418 36.5472 33.7803 36.5126 34.1501 36.5208Z" fill="white"/>
</g>
</g>
<defs>
<filter id="filter0_d" x="0" y="0" width="90" height="90" filterUnits="userSpaceOnUse" color-interpolation-filters="sRGB">
<feFlood flood-opacity="0" result="BackgroundImageFix"/>
<feColorMatrix in="SourceAlpha" type="matrix" values="0 0 0 0 0 0 0 0 0 0 0 0 0 0 0 0 0 0 127 0"/>
<feOffset dy="10"/>
<feGaussianBlur stdDeviation="10"/>
<feColorMatrix type="matrix" values="0 0 0 0 1 0 0 0 0 0.772549 0 0 0 0 0.901961 0 0 0 0.3 0"/>
<feBlend mode="normal" in2="BackgroundImageFix" result="effect1_dropShadow"/>
<feBlend mode="normal" in="SourceGraphic" in2="effect1_dropShadow" result="shape"/>
</filter>
<clipPath id="clip0">
<rect x="32.5" y="22.5" width="25" height="25" fill="white"/>
</clipPath>
</defs>
</svg>
