<svg width="50" height="50" viewBox="0 0 50 50" fill="none" xmlns="http://www.w3.org/2000/svg">
<g clip-path="url(#clip0)">
<path d="M14.1501 26.5208C14.7301 26.5235 14.7083 26.5246 14.6775 25.9496C14.6346 25.1462 14.7419 24.353 14.9251 23.5702C15.2292 22.2712 15.7865 21.0985 16.6528 20.0766C16.8554 19.8375 16.8161 19.5248 16.8351 19.245C16.9276 17.8823 17.1401 16.5459 17.5779 15.2471C17.7911 14.6143 17.9984 13.9861 18.4151 13.447C18.6072 13.1984 18.7667 13.1147 19.1136 13.2221C20.5962 13.6812 21.8326 14.5316 22.9891 15.5266C23.1812 15.6919 23.3168 15.9057 23.4772 16.0983C23.6544 16.3109 23.835 16.4174 24.1487 16.2834C25.0314 15.9064 25.952 15.672 26.9263 15.7169C27.7535 15.7551 28.4587 16.0868 29.0652 16.6261C29.7025 17.1928 30.1715 17.8682 30.3661 18.7225C30.4786 19.2164 31.0937 19.6133 31.5984 19.6303C32.6116 19.6644 33.6124 19.7762 34.5976 20.0525C35.5151 20.3098 36.3984 20.6232 37.1925 21.1573C37.5149 21.3742 37.5776 21.5847 37.4096 21.9215C37.0397 22.663 36.6657 23.4052 36.1736 24.0742C35.5351 24.9423 34.7837 25.7027 33.8527 26.2599C33.558 26.4363 33.4085 26.6545 33.381 26.9939C33.3101 27.8681 32.9803 28.6677 32.6702 29.4783C32.0665 31.0568 30.887 32.1582 29.6578 33.224C29.4324 33.4194 29.391 33.7086 29.2327 33.9374C29.1597 34.0429 29.3283 34.0737 29.3994 34.1244C29.9246 34.4986 30.2844 35.0149 30.5578 35.5788C30.7531 35.9819 30.6057 36.3251 30.2371 36.5448C29.8105 36.8026 29.3008 36.8859 28.8143 36.7773C27.5972 36.5259 26.5066 36.0243 25.6276 35.121C25.5171 35.0075 25.3942 35.0104 25.2548 35.0318C23.9849 35.226 22.7407 35.1612 21.5199 34.716C21.1871 34.5946 20.8341 34.525 20.5157 34.3595C20.4109 34.3051 20.3376 34.3428 20.2576 34.4142C19.0397 35.5006 17.5864 35.7037 16.0381 35.5163C15.8343 35.4916 15.6311 35.391 15.447 35.2902C15.1423 35.1234 15.04 34.8032 15.1286 34.4363C15.2797 33.8102 15.7677 33.4678 16.2402 33.1171C16.583 32.8627 16.9735 32.6903 17.37 32.5365C17.5333 32.4731 17.5958 32.4261 17.4362 32.2693C16.7159 31.5621 16.0811 30.7883 15.6458 29.8676C15.6209 29.8163 15.585 29.7711 15.5406 29.7354C15.4961 29.6997 15.4443 29.6743 15.3889 29.6611C14.3739 29.326 13.4722 28.7152 12.7845 27.8971C12.3263 27.3627 12.4211 26.9668 13.072 26.6928C13.418 26.5472 13.7803 26.5126 14.1501 26.5208Z" fill="#FFC5E6"/>
</g>
<defs>
<clipPath id="clip0">
<rect x="12.5" y="12.5" width="25" height="25" fill="white"/>
</clipPath>
</defs>
</svg>
