<svg width="90" height="90" viewBox="0 0 90 90" fill="none" xmlns="http://www.w3.org/2000/svg">
<g filter="url(#filter0_d)">
<path d="M20 35C20 21.1929 31.1929 10 45 10C58.8071 10 70 21.1929 70 35C70 48.8071 58.8071 60 45 60C31.1929 60 20 48.8071 20 35Z" fill="#AEBFD7"/>
<g clip-path="url(#clip0)">
<path d="M42.0054 27.7047C41.6849 27.58 41.3899 27.3978 41.135 27.1671C40.9306 26.9766 40.7069 26.7865 40.825 26.4525C40.8577 26.3602 40.7808 26.3402 40.7272 26.3026C40.0725 25.8427 40.0812 24.9927 40.7393 24.5233C40.9641 24.3722 41.2201 24.2739 41.4882 24.2358C41.6248 24.2113 41.7658 24.2014 41.7344 23.9984C41.7334 23.9744 41.7373 23.9505 41.746 23.9282C41.7546 23.9059 41.7678 23.8856 41.7847 23.8686C42.0003 23.6639 42.189 23.3719 42.447 23.282C43.1146 23.0496 43.7079 22.6073 44.4472 22.5713C44.8417 22.5521 45.2337 22.4841 45.6307 22.5034C45.9556 22.5193 46.2072 22.6413 46.3265 22.9692C46.4122 23.2047 46.5138 23.4343 46.5991 23.6699C46.7162 23.9935 46.8062 24.3172 47.0204 24.6099C47.2755 24.9585 47.245 25.4195 47.3426 25.8306C47.3755 25.9517 47.3963 26.0758 47.4046 26.2011C47.4285 26.9529 47.9241 27.3201 48.5324 27.5949C48.7436 27.6902 48.9677 27.6541 49.1886 27.6346C49.6696 27.59 50.1547 27.6399 50.6166 27.7815C51.1023 27.9307 51.4497 28.2621 51.741 28.6531C52.3769 29.5067 53.2805 30.0069 54.1812 30.5027C54.5122 30.685 54.8427 30.8557 55.1279 31.1057C55.2747 31.2267 55.3828 31.3882 55.4385 31.5702C55.4943 31.7521 55.4953 31.9464 55.4415 32.1289C55.3314 32.557 55.2596 32.9948 55.0953 33.4116C54.9147 33.8698 54.6116 34.1624 54.1704 34.383C53.664 34.6363 53.2054 34.9801 52.6809 35.2114C52.299 35.373 51.9051 35.5045 51.5027 35.6046C51.1466 35.699 50.9247 35.8843 50.8698 36.254C50.8332 36.5004 50.685 36.6445 50.4519 36.7202C50.0565 36.8487 50.0686 36.8465 50.2648 37.2246C50.6374 37.9425 51.0332 38.6493 51.0746 39.4928C51.0943 39.895 51.3329 40.2256 51.6321 40.4783C52.243 40.9943 52.5009 41.6595 52.5491 42.4338C52.5653 42.6934 52.4931 42.948 52.5427 43.2115C52.5818 43.4196 52.6388 43.6052 52.8009 43.7443C53.0669 43.9725 53.1724 44.2666 53.2085 44.6085C53.2403 44.8975 53.3602 45.1696 53.552 45.3881C53.8501 45.7402 54.0536 46.1602 54.3334 46.5309C54.5811 46.8591 54.2478 47.3276 53.812 47.3162C53.3519 47.3042 52.9011 47.386 52.4478 47.4406C52.2927 47.4593 52.1361 47.4181 51.995 47.431C51.5214 47.4744 51.0689 47.4119 50.602 47.3476C50.3659 47.315 50.0771 47.5254 49.7786 47.4974C49.626 47.4767 49.4839 47.4082 49.3726 47.3018C49.2613 47.1954 49.1865 47.0565 49.1589 46.905C49.1344 46.7705 49.1592 46.6317 49.2288 46.5141C49.2985 46.3965 49.4082 46.3079 49.5378 46.2647C49.8891 46.1485 50.0352 45.9025 50.0931 45.5623C50.2497 44.6428 50.2351 44.6108 49.4306 44.126C49.1903 43.9812 48.9409 43.8575 48.6882 43.7369C48.3186 43.5604 48.083 43.2721 48.016 42.8572C47.9544 42.4861 47.9168 42.1114 47.9033 41.7355C47.8935 41.4228 47.7668 41.2004 47.4592 41.0591C46.7112 40.7157 46.1605 40.1298 45.6783 39.4846C45.4581 39.1899 45.2099 39.0298 44.8397 39.0054C44.4289 38.9784 44.0153 38.9699 43.615 38.8202C43.3549 38.7229 43.0304 38.9021 42.8821 39.1638C42.411 39.9955 41.734 40.5769 40.8288 40.8959C40.4585 41.0264 40.3785 41.1381 40.5594 41.475C40.9834 42.2648 40.7804 42.8929 40.1715 43.4682C40.0424 43.5989 39.9326 43.7474 39.8455 43.9091C39.6403 44.2641 39.7374 44.6961 40.118 45.05C40.1967 45.1138 40.2538 45.2004 40.2814 45.2979C40.309 45.3954 40.3058 45.4991 40.2722 45.5947C40.1809 45.919 40.0371 46.2083 39.7243 46.377C39.5888 46.4526 39.4702 46.5551 39.3759 46.6783C38.9851 47.173 38.4514 47.2441 37.9103 47.0872C37.5091 46.9709 37.1124 47.0131 36.7178 46.9848C36.171 46.9454 35.6241 46.9135 35.081 46.8383C34.6805 46.7829 34.4833 46.4202 34.6447 46.0684C34.7435 45.8529 34.9468 45.8532 35.133 45.8169C35.8939 45.6687 36.8349 44.7302 36.9873 43.9736C37.018 43.8417 37.01 43.7037 36.9645 43.5761C36.8974 43.3953 36.849 43.2047 36.7599 43.0354C36.4847 42.5126 36.4652 41.9961 36.706 41.4514C36.8309 41.1691 36.8418 40.8552 36.7988 40.5439C36.7786 40.4394 36.7786 40.332 36.7987 40.2275C37.0103 39.4186 37.278 38.637 37.9082 38.0381C38.0406 37.9123 38.1565 37.7687 38.2773 37.6309C38.3128 37.5904 38.3767 37.5479 38.3341 37.4851C38.3138 37.4574 38.2845 37.4377 38.2511 37.4294C38.2178 37.4212 38.1826 37.4249 38.1517 37.4399C38.079 37.4657 38.0086 37.4988 37.9349 37.521C37.6269 37.6136 37.315 37.6844 36.9994 37.5644C36.8327 37.5009 36.6757 37.584 36.5129 37.5709C36.0572 37.5342 35.6524 37.3483 35.2771 37.1132C34.8991 36.8763 34.8273 36.5887 35.0051 36.1671C35.0618 36.0449 35.0915 35.9119 35.0922 35.7771C35.0929 35.6424 35.0646 35.5091 35.0092 35.3862C34.8615 35.0407 34.7379 34.6849 34.605 34.3331C34.4932 34.0322 34.4901 33.7017 34.5961 33.3987C34.7195 33.0129 34.8501 32.6276 34.9384 32.2333C34.9942 31.9841 34.9808 31.7189 34.994 31.4606C35.0087 31.1738 35.1291 30.9445 35.4043 30.8524C35.9094 30.6833 36.2656 30.3173 36.6433 29.975C36.9209 29.7234 37.2636 29.5886 37.6054 29.4557C38.354 29.1648 39.0663 28.8219 39.6852 28.2882C40.1246 27.9093 40.6994 27.8373 41.2583 27.7776C41.5062 27.7511 41.7531 27.7019 42.0054 27.7047ZM39.6707 36.3255C40.4962 36.1153 40.8902 35.5062 41.2255 34.838C41.2648 34.7597 41.303 34.6845 41.2524 34.5937C41.0512 34.2324 41.1524 33.9044 41.3785 33.5995C41.5139 33.4169 41.4674 33.2841 41.3342 33.1155C40.9936 32.6845 40.5384 32.7388 40.0915 32.8045C39.7609 32.8532 39.4152 32.9262 39.2192 33.2478C38.9248 33.7308 39.0497 34.4622 39.477 34.8261C39.5503 34.8884 39.6258 34.9484 39.6963 35.0137C39.8991 35.2017 39.9706 35.4149 39.8605 35.6884C39.779 35.8909 39.734 36.108 39.6707 36.3255L39.6707 36.3255Z" fill="white"/>
</g>
</g>
<defs>
<filter id="filter0_d" x="0" y="0" width="90" height="90" filterUnits="userSpaceOnUse" color-interpolation-filters="sRGB">
<feFlood flood-opacity="0" result="BackgroundImageFix"/>
<feColorMatrix in="SourceAlpha" type="matrix" values="0 0 0 0 0 0 0 0 0 0 0 0 0 0 0 0 0 0 127 0"/>
<feOffset dy="10"/>
<feGaussianBlur stdDeviation="10"/>
<feColorMatrix type="matrix" values="0 0 0 0 0.682353 0 0 0 0 0.74902 0 0 0 0 0.843137 0 0 0 0.3 0"/>
<feBlend mode="normal" in2="BackgroundImageFix" result="effect1_dropShadow"/>
<feBlend mode="normal" in="SourceGraphic" in2="effect1_dropShadow" result="shape"/>
</filter>
<clipPath id="clip0">
<rect x="32.5" y="22.5" width="25" height="25" fill="white"/>
</clipPath>
</defs>
</svg>
