<svg width="50" height="50" viewBox="0 0 50 50" fill="none" xmlns="http://www.w3.org/2000/svg">
<g clip-path="url(#clip0)">
<path d="M22.0054 17.7047C21.6849 17.58 21.3899 17.3978 21.135 17.1671C20.9306 16.9766 20.7069 16.7865 20.825 16.4525C20.8577 16.3602 20.7808 16.3402 20.7272 16.3026C20.0725 15.8427 20.0812 14.9927 20.7393 14.5233C20.9641 14.3722 21.2201 14.2739 21.4882 14.2358C21.6248 14.2113 21.7658 14.2014 21.7344 13.9984C21.7334 13.9744 21.7373 13.9505 21.746 13.9282C21.7546 13.9059 21.7678 13.8856 21.7847 13.8686C22.0003 13.6639 22.189 13.3719 22.447 13.282C23.1146 13.0496 23.7079 12.6073 24.4472 12.5713C24.8417 12.5521 25.2337 12.4841 25.6307 12.5034C25.9556 12.5193 26.2072 12.6413 26.3265 12.9692C26.4122 13.2047 26.5138 13.4343 26.5991 13.6699C26.7162 13.9935 26.8062 14.3172 27.0204 14.6099C27.2755 14.9585 27.245 15.4195 27.3426 15.8306C27.3755 15.9517 27.3963 16.0758 27.4046 16.2011C27.4285 16.9529 27.9241 17.3201 28.5324 17.5949C28.7436 17.6902 28.9677 17.6541 29.1886 17.6346C29.6696 17.59 30.1547 17.6399 30.6166 17.7815C31.1023 17.9307 31.4497 18.2621 31.741 18.6531C32.3769 19.5067 33.2805 20.0069 34.1812 20.5027C34.5122 20.685 34.8427 20.8557 35.1279 21.1057C35.2747 21.2267 35.3828 21.3882 35.4385 21.5702C35.4943 21.7521 35.4953 21.9464 35.4415 22.1289C35.3314 22.557 35.2596 22.9948 35.0953 23.4116C34.9147 23.8698 34.6116 24.1624 34.1704 24.383C33.664 24.6363 33.2054 24.9801 32.6809 25.2114C32.299 25.373 31.9051 25.5045 31.5027 25.6046C31.1466 25.699 30.9247 25.8843 30.8698 26.254C30.8332 26.5004 30.685 26.6445 30.4519 26.7202C30.0565 26.8487 30.0686 26.8465 30.2648 27.2246C30.6374 27.9425 31.0332 28.6493 31.0746 29.4928C31.0943 29.895 31.3329 30.2256 31.6321 30.4783C32.243 30.9943 32.5009 31.6595 32.5491 32.4338C32.5653 32.6934 32.4931 32.948 32.5427 33.2115C32.5818 33.4196 32.6388 33.6052 32.8009 33.7443C33.0669 33.9725 33.1724 34.2666 33.2085 34.6085C33.2403 34.8975 33.3602 35.1696 33.552 35.3881C33.8501 35.7402 34.0536 36.1602 34.3334 36.5309C34.5811 36.8591 34.2478 37.3276 33.812 37.3162C33.3519 37.3042 32.9011 37.386 32.4478 37.4406C32.2927 37.4593 32.1361 37.4181 31.995 37.431C31.5214 37.4744 31.0689 37.4119 30.602 37.3476C30.3659 37.315 30.0771 37.5254 29.7786 37.4974C29.626 37.4767 29.4839 37.4082 29.3726 37.3018C29.2613 37.1954 29.1865 37.0565 29.1589 36.905C29.1344 36.7705 29.1592 36.6317 29.2288 36.5141C29.2985 36.3965 29.4082 36.3079 29.5378 36.2647C29.8891 36.1485 30.0352 35.9025 30.0931 35.5623C30.2497 34.6428 30.2351 34.6108 29.4306 34.126C29.1903 33.9812 28.9409 33.8575 28.6882 33.7369C28.3186 33.5604 28.083 33.2721 28.016 32.8572C27.9544 32.4861 27.9168 32.1114 27.9033 31.7355C27.8935 31.4228 27.7668 31.2004 27.4592 31.0591C26.7112 30.7157 26.1605 30.1298 25.6783 29.4846C25.4581 29.1899 25.2099 29.0298 24.8397 29.0054C24.4289 28.9784 24.0153 28.9699 23.615 28.8202C23.3549 28.7229 23.0304 28.9021 22.8821 29.1638C22.411 29.9955 21.734 30.5769 20.8288 30.8959C20.4585 31.0264 20.3785 31.1381 20.5594 31.475C20.9834 32.2648 20.7804 32.8929 20.1715 33.4682C20.0424 33.5989 19.9326 33.7474 19.8455 33.9091C19.6403 34.2641 19.7374 34.6961 20.118 35.05C20.1967 35.1138 20.2538 35.2004 20.2814 35.2979C20.309 35.3954 20.3058 35.4991 20.2722 35.5947C20.1809 35.919 20.0371 36.2083 19.7243 36.377C19.5888 36.4526 19.4702 36.5551 19.3759 36.6783C18.9851 37.173 18.4514 37.2441 17.9103 37.0872C17.5091 36.9709 17.1124 37.0131 16.7178 36.9848C16.171 36.9454 15.6241 36.9135 15.081 36.8383C14.6805 36.7829 14.4833 36.4202 14.6447 36.0684C14.7435 35.8529 14.9468 35.8532 15.133 35.8169C15.8939 35.6687 16.8349 34.7302 16.9873 33.9736C17.018 33.8417 17.01 33.7037 16.9645 33.5761C16.8974 33.3953 16.849 33.2047 16.7599 33.0354C16.4847 32.5126 16.4652 31.9961 16.706 31.4514C16.8309 31.1691 16.8418 30.8552 16.7988 30.5439C16.7786 30.4394 16.7786 30.332 16.7987 30.2275C17.0103 29.4186 17.278 28.637 17.9082 28.0381C18.0406 27.9123 18.1565 27.7687 18.2773 27.6309C18.3128 27.5904 18.3767 27.5479 18.3341 27.4851C18.3138 27.4574 18.2845 27.4377 18.2511 27.4294C18.2178 27.4212 18.1826 27.4249 18.1517 27.4399C18.079 27.4657 18.0086 27.4988 17.9349 27.521C17.6269 27.6136 17.315 27.6844 16.9994 27.5644C16.8327 27.5009 16.6757 27.584 16.5129 27.5709C16.0572 27.5342 15.6524 27.3483 15.2771 27.1132C14.8991 26.8763 14.8273 26.5887 15.0051 26.1671C15.0618 26.0449 15.0915 25.9119 15.0922 25.7771C15.0929 25.6424 15.0646 25.5091 15.0092 25.3862C14.8615 25.0407 14.7379 24.6849 14.605 24.3331C14.4932 24.0322 14.4901 23.7017 14.5961 23.3987C14.7195 23.0129 14.8501 22.6276 14.9384 22.2333C14.9942 21.9841 14.9808 21.7189 14.994 21.4606C15.0087 21.1738 15.1291 20.9445 15.4043 20.8524C15.9094 20.6833 16.2656 20.3173 16.6433 19.975C16.9209 19.7234 17.2636 19.5886 17.6054 19.4557C18.354 19.1648 19.0663 18.8219 19.6852 18.2882C20.1246 17.9093 20.6994 17.8373 21.2583 17.7776C21.5062 17.7511 21.7531 17.7019 22.0054 17.7047ZM19.6707 26.3255C20.4962 26.1153 20.8902 25.5062 21.2255 24.838C21.2648 24.7597 21.303 24.6845 21.2524 24.5937C21.0512 24.2324 21.1524 23.9044 21.3785 23.5995C21.5139 23.4169 21.4674 23.2841 21.3342 23.1155C20.9936 22.6845 20.5384 22.7388 20.0915 22.8045C19.7609 22.8532 19.4152 22.9262 19.2192 23.2478C18.9248 23.7308 19.0497 24.4622 19.477 24.8261C19.5503 24.8884 19.6258 24.9484 19.6963 25.0137C19.8991 25.2017 19.9706 25.4149 19.8605 25.6884C19.779 25.8909 19.734 26.108 19.6707 26.3255L19.6707 26.3255Z" fill="#AEBFD7"/>
</g>
<defs>
<clipPath id="clip0">
<rect x="12.5" y="12.5" width="25" height="25" fill="white"/>
</clipPath>
</defs>
</svg>
