<svg width="90" height="90" viewBox="0 0 90 90" fill="none" xmlns="http://www.w3.org/2000/svg">
<g filter="url(#filter0_d)">
<path d="M20 35C20 21.1929 31.1929 10 45 10C58.8071 10 70 21.1929 70 35C70 48.8071 58.8071 60 45 60C31.1929 60 20 48.8071 20 35Z" fill="#99CD7C"/>
<g clip-path="url(#clip0)">
<path d="M49.6357 28.9818C49.6173 29.3832 49.6359 29.7886 49.5731 30.1904C49.5526 30.3213 49.5435 30.4499 49.6663 30.5616C50.5358 31.3522 50.9336 32.38 51.1272 33.5071C51.3035 34.5333 51.2449 35.5564 50.9051 36.5311C50.4995 37.6944 49.8806 38.7347 48.7778 39.3945C48.6507 39.4705 48.6146 39.549 48.6286 39.6957C48.6521 39.9936 48.6386 40.2932 48.5884 40.5878C48.4944 41.205 48.8661 41.6287 49.2693 42.0071C49.9681 42.6687 50.8589 43.0912 51.8133 43.2139C52.6937 43.3345 53.4946 43.1073 54.22 42.6033C54.4349 42.454 54.6953 42.3389 54.671 42.0019C54.6651 41.9205 54.7494 41.8707 54.8264 41.849C55.0859 41.7762 55.0601 41.6364 54.9812 41.4168C54.6688 40.5466 54.6513 39.6408 54.7166 38.7303C54.7422 38.2779 54.8279 37.8309 54.9716 37.4011C55.1284 36.9227 55.4072 36.4933 55.7803 36.1554C56.0818 35.8859 56.4344 35.7435 56.8178 35.8789C57.2181 36.0202 57.3764 36.3789 57.4473 36.7819C57.628 37.8093 57.3161 38.7545 56.9383 39.6767C56.6797 40.3081 56.4391 40.954 56.05 41.5248C55.974 41.636 55.892 41.743 55.8045 41.8454C55.7424 41.9183 55.7164 41.9835 55.7582 42.0796C55.8879 42.3776 55.7779 42.6249 55.5745 42.844C55.4952 42.9295 55.4075 43.0042 55.4149 43.1373C55.4373 43.5442 55.2522 43.8897 55.0576 44.2206C54.8386 44.593 54.5886 44.948 54.3392 45.3015C54.108 45.6239 53.8127 45.8951 53.4718 46.0979C52.7789 46.5212 52.0664 46.8843 51.2795 47.121C49.3553 47.6997 47.4651 47.5313 45.5559 47.0314C44.191 46.6741 42.9988 46.0305 41.9185 45.1482C41.5507 44.8478 41.2145 44.5159 40.9712 44.1029C40.8612 43.9159 40.7502 43.9062 40.5452 43.9929C39.3476 44.4996 38.2257 43.727 38.2857 42.4576C38.2891 42.3419 38.3191 42.2284 38.3734 42.1261C38.4522 41.9894 38.43 41.8724 38.3762 41.7422C38.1718 41.2481 38.201 40.7812 38.5591 40.3633C38.6595 40.2463 38.605 40.1757 38.5162 40.099C38.4824 40.0716 38.4427 40.0524 38.4003 40.0428C38.3579 40.0333 38.3138 40.0336 38.2715 40.0439C37.3479 40.1845 36.7191 39.382 36.6319 38.6156C36.5736 38.1043 36.6224 37.61 37.0083 37.2125C37.0367 37.1794 37.0583 37.1411 37.0717 37.0996C37.0852 37.0582 37.0903 37.0145 37.0868 36.971C37.0983 36.5537 37.2209 36.147 37.442 35.7928C37.542 35.6239 37.487 35.5679 37.3345 35.4958C36.7358 35.213 36.1874 34.8659 35.7948 34.3081C35.3307 33.6487 35.079 32.9284 35.109 32.1182C35.1237 31.9451 35.0802 31.7721 34.9853 31.6266C34.3789 30.7204 34.2501 29.7071 34.3168 28.6448C34.3591 27.9528 34.5194 27.2732 34.7907 26.6353C34.8799 26.4249 34.8101 26.3585 34.604 26.3026C34.2135 26.1965 33.8288 26.0699 33.4517 25.9233C33.1753 25.8177 32.9369 25.6318 32.7673 25.3894C32.5976 25.147 32.5045 24.8594 32.5 24.5636C32.5017 23.8848 33.4191 23.0063 34.2778 23.475C34.8893 23.8088 35.4261 24.2546 36.0333 24.5943C36.2168 24.697 36.3269 24.6885 36.4911 24.5651C37.0913 24.114 37.6776 23.6429 38.356 23.3024C38.8094 23.0749 39.2932 22.9537 39.7709 22.8021C40.9174 22.4384 42.0931 22.511 43.2664 22.5384C43.6486 22.5473 44.0057 22.6928 44.3554 22.8181C45.3474 23.1736 46.3009 23.6237 47.1286 24.285C47.9101 24.9093 48.5859 25.6453 48.9957 26.5697C49.3344 27.3338 49.6654 28.1126 49.6357 28.9818Z" fill="white"/>
</g>
</g>
<defs>
<filter id="filter0_d" x="0" y="0" width="90" height="90" filterUnits="userSpaceOnUse" color-interpolation-filters="sRGB">
<feFlood flood-opacity="0" result="BackgroundImageFix"/>
<feColorMatrix in="SourceAlpha" type="matrix" values="0 0 0 0 0 0 0 0 0 0 0 0 0 0 0 0 0 0 127 0"/>
<feOffset dy="10"/>
<feGaussianBlur stdDeviation="10"/>
<feColorMatrix type="matrix" values="0 0 0 0 0.6 0 0 0 0 0.803922 0 0 0 0 0.486275 0 0 0 0.3 0"/>
<feBlend mode="normal" in2="BackgroundImageFix" result="effect1_dropShadow"/>
<feBlend mode="normal" in="SourceGraphic" in2="effect1_dropShadow" result="shape"/>
</filter>
<clipPath id="clip0">
<rect x="32.5" y="22.5" width="25" height="25" fill="white"/>
</clipPath>
</defs>
</svg>
