<svg width="50" height="50" viewBox="0 0 50 50" fill="none" xmlns="http://www.w3.org/2000/svg">
<g clip-path="url(#clip0)">
<path d="M29.6357 18.9818C29.6173 19.3832 29.6359 19.7886 29.5731 20.1903C29.5526 20.3213 29.5435 20.4499 29.6663 20.5616C30.5358 21.3522 30.9336 22.38 31.1272 23.5071C31.3035 24.5333 31.2449 25.5564 30.9051 26.5311C30.4995 27.6944 29.8806 28.7347 28.7778 29.3944C28.6507 29.4705 28.6146 29.549 28.6286 29.6957C28.6521 29.9935 28.6386 30.2932 28.5884 30.5877C28.4944 31.205 28.8661 31.6287 29.2693 32.0071C29.9681 32.6687 30.8589 33.0912 31.8133 33.2139C32.6937 33.3344 33.4946 33.1073 34.22 32.6033C34.4349 32.454 34.6953 32.3389 34.671 32.0019C34.6651 31.9205 34.7494 31.8707 34.8264 31.849C35.0859 31.7761 35.0601 31.6364 34.9812 31.4168C34.6688 30.5466 34.6513 29.6408 34.7166 28.7303C34.7422 28.2779 34.8279 27.8309 34.9716 27.401C35.1284 26.9226 35.4072 26.4933 35.7803 26.1553C36.0818 25.8859 36.4344 25.7435 36.8178 25.8789C37.2181 26.0202 37.3764 26.3789 37.4473 26.7818C37.628 27.8093 37.3161 28.7545 36.9383 29.6767C36.6797 30.3081 36.4391 30.954 36.05 31.5248C35.974 31.636 35.892 31.743 35.8045 31.8454C35.7424 31.9183 35.7164 31.9835 35.7582 32.0796C35.8879 32.3776 35.7779 32.6249 35.5745 32.844C35.4952 32.9295 35.4075 33.0042 35.4149 33.1372C35.4373 33.5442 35.2522 33.8897 35.0576 34.2206C34.8386 34.593 34.5886 34.948 34.3392 35.3015C34.108 35.6239 33.8127 35.8951 33.4718 36.0979C32.7789 36.5211 32.0664 36.8842 31.2795 37.121C29.3553 37.6997 27.4651 37.5313 25.5559 37.0314C24.191 36.674 22.9988 36.0305 21.9185 35.1482C21.5507 34.8478 21.2145 34.5159 20.9712 34.1029C20.8612 33.9159 20.7502 33.9062 20.5452 33.9929C19.3476 34.4995 18.2257 33.727 18.2857 32.4576C18.2891 32.3419 18.3191 32.2284 18.3734 32.1261C18.4522 31.9894 18.43 31.8724 18.3762 31.7422C18.1718 31.2481 18.201 30.7811 18.5591 30.3633C18.6595 30.2463 18.605 30.1756 18.5162 30.0989C18.4824 30.0716 18.4427 30.0524 18.4003 30.0428C18.3579 30.0333 18.3138 30.0336 18.2715 30.0439C17.3479 30.1845 16.7191 29.382 16.6319 28.6156C16.5736 28.1043 16.6224 27.61 17.0083 27.2124C17.0367 27.1794 17.0583 27.141 17.0717 27.0996C17.0852 27.0582 17.0903 27.0145 17.0868 26.971C17.0983 26.5537 17.2209 26.1469 17.442 25.7928C17.542 25.6239 17.487 25.5679 17.3345 25.4958C16.7358 25.213 16.1874 24.8659 15.7948 24.3081C15.3307 23.6487 15.079 22.9283 15.109 22.1181C15.1237 21.9451 15.0802 21.7721 14.9853 21.6266C14.3789 20.7204 14.2501 19.7071 14.3168 18.6448C14.3591 17.9528 14.5194 17.2732 14.7907 16.6352C14.8799 16.4249 14.8101 16.3585 14.604 16.3026C14.2135 16.1965 13.8288 16.0699 13.4517 15.9233C13.1753 15.8177 12.9369 15.6318 12.7673 15.3894C12.5976 15.147 12.5045 14.8594 12.5 14.5636C12.5017 13.8848 13.4191 13.0063 14.2778 13.475C14.8893 13.8088 15.4261 14.2546 16.0333 14.5943C16.2168 14.697 16.3269 14.6885 16.4911 14.5651C17.0913 14.1139 17.6776 13.6429 18.356 13.3024C18.8094 13.0749 19.2932 12.9537 19.7709 12.8021C20.9174 12.4383 22.0931 12.5109 23.2664 12.5383C23.6486 12.5473 24.0057 12.6928 24.3554 12.8181C25.3474 13.1736 26.3009 13.6237 27.1286 14.2849C27.9101 14.9093 28.5859 15.6453 28.9957 16.5697C29.3344 17.3337 29.6654 18.1126 29.6357 18.9818Z" fill="#99CD7C"/>
</g>
<defs>
<clipPath id="clip0">
<rect x="12.5" y="12.5" width="25" height="25" fill="white"/>
</clipPath>
</defs>
</svg>
