<svg width="90" height="90" viewBox="0 0 90 90" fill="none" xmlns="http://www.w3.org/2000/svg">
<g filter="url(#filter0_d)">
<path d="M20 35C20 21.1929 31.1929 10 45 10C58.8071 10 70 21.1929 70 35C70 48.8071 58.8071 60 45 60C31.1929 60 20 48.8071 20 35Z" fill="#57B2DC"/>
<g clip-path="url(#clip0)">
<path d="M41.6953 44.4936C41.3032 44.2755 40.9248 44.0683 40.5502 43.8545C40.4435 43.7936 40.3693 43.8245 40.2959 43.9035C39.5286 44.7289 38.496 44.9503 37.4537 45.1293C36.7103 45.2569 35.9524 45.1964 35.2017 45.2412C34.3651 45.2912 33.5432 45.3657 32.845 45.9026C32.6718 46.0358 32.5721 45.9311 32.5338 45.7638C32.479 45.5363 32.4911 45.2978 32.5686 45.077C33.266 43.1418 34.5101 41.7693 36.5525 41.2211C37.2053 41.0428 37.8816 40.9664 38.5577 40.9945C38.8033 41.0054 38.9035 40.9443 38.8855 40.6735C38.7848 39.1595 39.3334 37.8424 40.1362 36.6008C41.3476 34.7273 42.5637 32.8554 43.2608 30.7085C43.5136 29.9298 43.516 29.9275 42.7273 29.7791C42.2227 29.6843 41.7252 29.5672 41.2629 29.3368C41.0328 29.2221 40.7842 29.2035 40.5381 29.1584C40.0058 29.0608 39.9038 28.9348 39.9023 28.3101C39.9005 27.538 40.241 26.8905 40.7211 26.317C40.9722 26.0171 41.1129 25.7359 40.8997 25.3569C40.8258 25.2257 40.8037 25.0645 40.7629 24.9157C40.6995 24.6845 40.805 24.5204 40.9885 24.3994C41.1705 24.2793 41.3224 24.3641 41.4521 24.4971C41.5347 24.5968 41.6264 24.6886 41.7259 24.7713C41.6567 24.2689 41.8257 23.8552 42.1215 23.5024C42.7393 22.7655 43.7649 22.7781 44.3909 23.5131C44.5569 23.703 44.6812 23.9256 44.7558 24.1665C44.7928 24.2903 44.8155 24.4179 44.9615 24.4537C45.1113 24.4905 45.1556 24.3555 45.2264 24.2713C45.7531 23.6446 46.4479 23.4298 47.1402 23.6823C47.8274 23.933 48.4623 24.7956 48.463 25.4794C48.4637 26.132 47.9299 26.8459 47.2575 27.0645C47.0746 27.124 46.9623 27.2143 46.9786 27.4074C47.0244 27.9497 46.8075 28.4305 46.6297 28.9181C46.1895 30.1249 45.7693 31.337 45.5085 32.5981C45.4812 32.7302 45.4597 32.8636 45.4384 32.9969C45.3405 33.6105 45.3386 33.617 45.9042 33.8173C46.0755 33.8779 46.2292 34.0965 46.3801 34.0242C46.4992 33.9671 46.5213 33.723 46.6041 33.5715C46.7709 33.2662 47.1229 33.1849 47.6103 33.3266C47.953 33.4262 48.035 33.5487 48.0216 33.9499C48.0113 34.2587 48.003 34.5677 47.9827 34.8758C47.9738 35.0118 48.0169 35.0938 48.1429 35.1473C48.2856 35.2062 48.4241 35.2747 48.5575 35.3524C48.8798 35.5444 49.1717 35.6408 49.4489 35.2606C49.582 35.0781 49.78 35.1259 49.9698 35.2384C50.2143 35.3833 50.4234 35.5735 50.3319 35.8599C50.2078 36.248 50.3369 36.4971 50.6146 36.7449C50.9018 37.0056 51.1359 37.3193 51.3041 37.6688C51.3984 37.8599 51.5137 37.9463 51.7405 37.8562C52.036 37.7388 52.2722 37.8836 52.4512 38.1054C52.6344 38.3323 52.712 38.608 52.5074 38.8504C52.1238 39.3051 52.1372 39.7921 52.2931 40.3217C52.3975 40.6762 52.6097 40.8793 52.9755 40.8775C53.7763 40.8734 54.4478 41.2384 55.105 41.629C55.8513 42.0726 56.5443 42.6035 57.3247 42.9927C57.4076 43.034 57.5126 43.0851 57.4988 43.201C57.4895 43.2638 57.4624 43.3227 57.4206 43.3705C57.3789 43.4184 57.3242 43.4532 57.2632 43.4709C56.8355 43.6235 56.3888 43.7161 55.9357 43.7461C55.6413 43.7713 55.3468 43.7954 55.0042 43.824C55.3996 44.1212 55.7806 44.365 56.089 44.695C56.2388 44.8454 56.3777 45.0061 56.5048 45.1761C56.6541 45.3898 56.5806 45.5423 56.3239 45.535C55.5865 45.5142 54.862 45.6419 54.1313 45.6956C53.3234 45.755 52.6218 45.4403 51.9482 45.0396C51.853 44.9831 51.7741 44.8876 51.6243 44.8898C51.7063 45.3095 51.9095 45.671 52.0739 46.0454C52.2983 46.5563 52.2054 46.686 51.6335 46.6608C50.464 46.6078 49.3139 46.3422 48.2396 45.8772C47.8911 45.7341 47.5292 45.6262 47.1594 45.555C47.0715 45.5306 46.9782 45.5338 46.8922 45.5642C46.8062 45.5947 46.7317 45.6508 46.6787 45.7251C46.2974 46.1854 45.7683 46.3545 45.1939 46.4102C44.5973 46.4681 43.9985 46.4689 43.3999 46.4705C42.5992 46.4726 41.8208 46.5726 41.1151 46.9918C40.9442 47.0933 40.8254 47.0456 40.7466 46.8658C40.6639 46.6912 40.6359 46.4957 40.6663 46.3049C40.7766 45.6258 41.1297 45.0861 41.5953 44.6046C41.6273 44.5716 41.657 44.5363 41.6953 44.4936Z" fill="white"/>
</g>
</g>
<defs>
<filter id="filter0_d" x="0" y="0" width="90" height="90" filterUnits="userSpaceOnUse" color-interpolation-filters="sRGB">
<feFlood flood-opacity="0" result="BackgroundImageFix"/>
<feColorMatrix in="SourceAlpha" type="matrix" values="0 0 0 0 0 0 0 0 0 0 0 0 0 0 0 0 0 0 127 0"/>
<feOffset dy="10"/>
<feGaussianBlur stdDeviation="10"/>
<feColorMatrix type="matrix" values="0 0 0 0 0.341176 0 0 0 0 0.698039 0 0 0 0 0.862745 0 0 0 0.3 0"/>
<feBlend mode="normal" in2="BackgroundImageFix" result="effect1_dropShadow"/>
<feBlend mode="normal" in="SourceGraphic" in2="effect1_dropShadow" result="shape"/>
</filter>
<clipPath id="clip0">
<rect x="32.5" y="22.5" width="25" height="25" fill="white"/>
</clipPath>
</defs>
</svg>
