<svg width="50" height="50" viewBox="0 0 50 50" fill="none" xmlns="http://www.w3.org/2000/svg">
<g clip-path="url(#clip0)">
<path d="M21.6953 34.4936C21.3032 34.2754 20.9248 34.0682 20.5502 33.8545C20.4435 33.7936 20.3693 33.8245 20.2959 33.9035C19.5286 34.7288 18.496 34.9503 17.4537 35.1293C16.7103 35.2569 15.9524 35.1964 15.2017 35.2412C14.3651 35.2912 13.5432 35.3657 12.845 35.9026C12.6718 36.0358 12.5721 35.9311 12.5338 35.7638C12.479 35.5363 12.4911 35.2978 12.5686 35.077C13.266 33.1418 14.5101 31.7693 16.5525 31.2211C17.2053 31.0428 17.8816 30.9664 18.5577 30.9945C18.8033 31.0054 18.9035 30.9443 18.8855 30.6735C18.7848 29.1595 19.3334 27.8424 20.1362 26.6008C21.3476 24.7273 22.5637 22.8553 23.2608 20.7084C23.5136 19.9297 23.516 19.9274 22.7273 19.7791C22.2227 19.6842 21.7252 19.5672 21.2629 19.3368C21.0328 19.2221 20.7842 19.2035 20.5381 19.1584C20.0058 19.0608 19.9038 18.9347 19.9023 18.3101C19.9005 17.538 20.241 16.8905 20.7211 16.317C20.9722 16.017 21.1129 15.7359 20.8997 15.3569C20.8258 15.2257 20.8037 15.0645 20.7629 14.9156C20.6995 14.6845 20.805 14.5204 20.9885 14.3993C21.1705 14.2793 21.3224 14.3641 21.4521 14.4971C21.5347 14.5968 21.6264 14.6886 21.7259 14.7713C21.6567 14.2689 21.8257 13.8552 22.1215 13.5024C22.7393 12.7655 23.7649 12.7781 24.3909 13.5131C24.5569 13.703 24.6812 13.9256 24.7558 14.1665C24.7928 14.2903 24.8155 14.4178 24.9615 14.4537C25.1113 14.4905 25.1556 14.3555 25.2264 14.2713C25.7531 13.6445 26.4479 13.4298 27.1402 13.6823C27.8274 13.933 28.4623 14.7956 28.463 15.4794C28.4637 16.132 27.9299 16.8459 27.2575 17.0645C27.0746 17.124 26.9623 17.2143 26.9786 17.4074C27.0244 17.9497 26.8075 18.4305 26.6297 18.9181C26.1895 20.1248 25.7693 21.337 25.5085 22.598C25.4812 22.7302 25.4597 22.8636 25.4384 22.9969C25.3405 23.6104 25.3386 23.617 25.9042 23.8172C26.0755 23.8779 26.2292 24.0965 26.3801 24.0242C26.4992 23.9671 26.5213 23.723 26.6041 23.5715C26.7709 23.2662 27.1229 23.1849 27.6103 23.3266C27.953 23.4262 28.035 23.5486 28.0216 23.9499C28.0113 24.2586 28.003 24.5676 27.9827 24.8758C27.9738 25.0117 28.0169 25.0937 28.1429 25.1473C28.2856 25.2062 28.4241 25.2747 28.5575 25.3523C28.8798 25.5444 29.1717 25.6407 29.4489 25.2605C29.582 25.0781 29.78 25.1259 29.9698 25.2384C30.2143 25.3833 30.4234 25.5735 30.3319 25.8599C30.2078 26.248 30.3369 26.4971 30.6146 26.7449C30.9018 27.0056 31.1359 27.3193 31.3041 27.6688C31.3984 27.8599 31.5137 27.9463 31.7405 27.8562C32.036 27.7388 32.2722 27.8836 32.4512 28.1054C32.6344 28.3323 32.712 28.608 32.5074 28.8504C32.1238 29.3051 32.1372 29.7921 32.2931 30.3216C32.3975 30.6761 32.6097 30.8793 32.9755 30.8774C33.7763 30.8734 34.4478 31.2384 35.105 31.629C35.8513 32.0726 36.5443 32.6035 37.3247 32.9927C37.4076 33.034 37.5126 33.0851 37.4988 33.201C37.4895 33.2638 37.4624 33.3227 37.4206 33.3705C37.3789 33.4184 37.3242 33.4532 37.2632 33.4709C36.8355 33.6235 36.3888 33.7161 35.9357 33.7461C35.6413 33.7713 35.3468 33.7953 35.0042 33.8239C35.3996 34.1211 35.7806 34.3649 36.089 34.695C36.2388 34.8454 36.3777 35.0061 36.5048 35.1761C36.6541 35.3898 36.5806 35.5423 36.3239 35.535C35.5865 35.5142 34.862 35.6419 34.1313 35.6956C33.3234 35.755 32.6218 35.4403 31.9482 35.0396C31.853 34.9831 31.7741 34.8876 31.6243 34.8898C31.7063 35.3095 31.9095 35.671 32.0739 36.0454C32.2983 36.5563 32.2054 36.6859 31.6335 36.6608C30.464 36.6077 29.3139 36.3422 28.2396 35.8771C27.8911 35.7341 27.5292 35.6262 27.1594 35.555C27.0715 35.5305 26.9782 35.5338 26.8922 35.5642C26.8062 35.5947 26.7317 35.6508 26.6787 35.7251C26.2974 36.1854 25.7683 36.3545 25.1939 36.4102C24.5973 36.4681 23.9985 36.4689 23.3999 36.4705C22.5992 36.4726 21.8208 36.5726 21.1151 36.9918C20.9442 37.0933 20.8254 37.0456 20.7466 36.8658C20.6639 36.6912 20.6359 36.4957 20.6663 36.3049C20.7766 35.6258 21.1297 35.0861 21.5953 34.6046C21.6273 34.5716 21.657 34.5363 21.6953 34.4936Z" fill="#57B2DC"/>
</g>
<defs>
<clipPath id="clip0">
<rect x="12.5" y="12.5" width="25" height="25" fill="white"/>
</clipPath>
</defs>
</svg>
