<svg width="90" height="90" viewBox="0 0 90 90" fill="none" xmlns="http://www.w3.org/2000/svg">
<g filter="url(#filter0_d)">
<path d="M20 35C20 21.1929 31.1929 10 45 10C58.8071 10 70 21.1929 70 35C70 48.8071 58.8071 60 45 60C31.1929 60 20 48.8071 20 35Z" fill="#FD7D24"/>
<g clip-path="url(#clip0)">
<path fill-rule="evenodd" clip-rule="evenodd" d="M49.7084 41.8064C50.0173 40.6769 49.4177 38.355 49.4177 38.355C49.4177 38.355 48.9829 40.2465 48.3034 40.9457C47.7237 41.542 47.0135 41.9556 45.9949 42.0643C46.8277 41.6598 47.4004 40.8164 47.4004 39.8416C47.4004 38.4731 46.2719 37.3637 44.8798 37.3637C43.4877 37.3637 42.3591 38.4731 42.3591 39.8416C42.3591 40.2153 42.4434 40.5697 42.5941 40.8875C41.7234 40.1939 41.5865 39.0817 41.5865 39.0817C41.5865 39.0817 40.6142 43.1184 43.2932 45.0172C45.9722 46.916 51.2202 45.2839 51.2202 45.2839C51.2202 45.2839 43.71 50.5682 38.1448 44.8169C33.3509 39.8625 36.8936 33.34 36.8936 33.34C36.8936 33.34 36.7406 33.9451 36.7406 34.6475C36.7406 35.3499 37.1214 35.8843 37.1214 35.8843C37.1214 35.8843 38.2574 33.4898 39.1415 32.516C39.9782 31.5944 41.0271 30.847 41.9331 30.2014C42.6304 29.7044 43.2431 29.2678 43.609 28.8585C45.6245 26.6049 44.3887 22.5 44.3887 22.5C44.3887 22.5 46.6607 24.5029 47.295 27.0897C47.5368 28.0758 47.3812 29.1977 47.2422 30.201C47.0164 31.8297 46.8339 33.1458 48.465 33.0604C51.1008 32.9223 48.8104 28.8585 48.8104 28.8585C48.8104 28.8585 54.7895 32.0011 54.3428 37.4973C53.8961 42.9935 47.8073 44.243 47.8073 44.243C47.8073 44.243 49.3995 42.9358 49.7084 41.8064Z" fill="white"/>
</g>
</g>
<defs>
<filter id="filter0_d" x="0" y="0" width="90" height="90" filterUnits="userSpaceOnUse" color-interpolation-filters="sRGB">
<feFlood flood-opacity="0" result="BackgroundImageFix"/>
<feColorMatrix in="SourceAlpha" type="matrix" values="0 0 0 0 0 0 0 0 0 0 0 0 0 0 0 0 0 0 127 0"/>
<feOffset dy="10"/>
<feGaussianBlur stdDeviation="10"/>
<feColorMatrix type="matrix" values="0 0 0 0 0.992157 0 0 0 0 0.490196 0 0 0 0 0.141176 0 0 0 0.3 0"/>
<feBlend mode="normal" in2="BackgroundImageFix" result="effect1_dropShadow"/>
<feBlend mode="normal" in="SourceGraphic" in2="effect1_dropShadow" result="shape"/>
</filter>
<clipPath id="clip0">
<rect x="32.5" y="22.5" width="25" height="25" fill="white"/>
</clipPath>
</defs>
</svg>
