<svg width="90" height="90" viewBox="0 0 90 90" fill="none" xmlns="http://www.w3.org/2000/svg">
<g filter="url(#filter0_d)">
<path d="M20 35C20 21.1929 31.1929 10 45 10C58.8071 10 70 21.1929 70 35C70 48.8071 58.8071 60 45 60C31.1929 60 20 48.8071 20 35Z" fill="#4A90DA"/>
<g clip-path="url(#clip0)">
<path fill-rule="evenodd" clip-rule="evenodd" d="M53.11 39.4204C53.11 43.8827 49.479 47.5 44.9999 47.5C40.5209 47.5 36.8899 43.8827 36.8899 39.4204C36.8899 35.0806 44.5612 23.1615 44.982 22.5111C44.9916 22.4963 45.0083 22.4963 45.0179 22.5111C45.4386 23.1615 53.11 35.0806 53.11 39.4204ZM43.648 44.9097C39.5326 44.0093 40.2368 39.4505 40.2368 39.4505C40.2368 39.4505 41.3606 42.2024 44.0877 43.0939C46.8148 43.9853 50.1105 42.6779 50.1105 42.6779C50.1105 42.6779 47.7634 45.8102 43.648 44.9097Z" fill="white"/>
</g>
</g>
<defs>
<filter id="filter0_d" x="0" y="0" width="90" height="90" filterUnits="userSpaceOnUse" color-interpolation-filters="sRGB">
<feFlood flood-opacity="0" result="BackgroundImageFix"/>
<feColorMatrix in="SourceAlpha" type="matrix" values="0 0 0 0 0 0 0 0 0 0 0 0 0 0 0 0 0 0 127 0"/>
<feOffset dy="10"/>
<feGaussianBlur stdDeviation="10"/>
<feColorMatrix type="matrix" values="0 0 0 0 0.290196 0 0 0 0 0.564706 0 0 0 0 0.854902 0 0 0 0.3 0"/>
<feBlend mode="normal" in2="BackgroundImageFix" result="effect1_dropShadow"/>
<feBlend mode="normal" in="SourceGraphic" in2="effect1_dropShadow" result="shape"/>
</filter>
<clipPath id="clip0">
<rect x="32.5" y="22.5" width="25" height="25" fill="white"/>
</clipPath>
</defs>
</svg>
