<svg width="90" height="90" viewBox="0 0 90 90" fill="none" xmlns="http://www.w3.org/2000/svg">
<g filter="url(#filter0_d)">
<path d="M20 35C20 21.1929 31.1929 10 45 10C58.8071 10 70 21.1929 70 35C70 48.8071 58.8071 60 45 60C31.1929 60 20 48.8071 20 35Z" fill="#748FC9"/>
<g clip-path="url(#clip0)">
<path fill-rule="evenodd" clip-rule="evenodd" d="M41.2262 45.8333C44.8885 45.8333 48.0238 43.7979 49.3182 40.9126C49.334 40.8774 44.1215 42.2672 44.2877 41.7759C44.3619 41.5565 47.5572 40.3892 49.8852 39.0277C51.2232 38.2451 51.8394 36.5885 51.8394 36.5885C51.8394 36.5885 49.5851 37.683 48.4455 37.9606C46.149 38.5202 44.1275 38.46 44.1275 38.4017C44.1275 38.2756 47.4842 37.6378 52.1496 34.7948C54.3441 33.4575 54.9402 31.1541 54.9402 31.1541C54.9402 31.1541 52.5275 32.5912 51.069 33.0657C47.6102 34.1908 44.4539 34.5299 44.4539 34.3776C44.4539 34.0517 47.2316 33.2878 50.1766 31.8608C51.7078 31.1189 53.034 30.1495 54.5707 29.0716C57.0853 27.3078 57.5 24.1666 57.5 24.1666C57.5 24.1666 55.0199 25.7662 53.8096 26.2975C48.8155 28.4894 44.4057 29.6392 41.2262 29.8882C36.4266 30.264 32.5 33.6127 32.5 37.9606C32.5 42.3086 36.4068 45.8333 41.2262 45.8333Z" fill="white"/>
</g>
</g>
<defs>
<filter id="filter0_d" x="0" y="0" width="90" height="90" filterUnits="userSpaceOnUse" color-interpolation-filters="sRGB">
<feFlood flood-opacity="0" result="BackgroundImageFix"/>
<feColorMatrix in="SourceAlpha" type="matrix" values="0 0 0 0 0 0 0 0 0 0 0 0 0 0 0 0 0 0 127 0"/>
<feOffset dy="10"/>
<feGaussianBlur stdDeviation="10"/>
<feColorMatrix type="matrix" values="0 0 0 0 0.454902 0 0 0 0 0.560784 0 0 0 0 0.788235 0 0 0 0.3 0"/>
<feBlend mode="normal" in2="BackgroundImageFix" result="effect1_dropShadow"/>
<feBlend mode="normal" in="SourceGraphic" in2="effect1_dropShadow" result="shape"/>
</filter>
<clipPath id="clip0">
<rect x="32.5" y="22.5" width="25" height="25" fill="white"/>
</clipPath>
</defs>
</svg>
