<svg width="90" height="90" viewBox="0 0 90 90" fill="none" xmlns="http://www.w3.org/2000/svg">
<g filter="url(#filter0_d)">
<path d="M20 35C20 21.1929 31.1929 10 45 10C58.8071 10 70 21.1929 70 35C70 48.8071 58.8071 60 45 60C31.1929 60 20 48.8071 20 35Z" fill="#417D9A"/>
<g clip-path="url(#clip0)">
<path fill-rule="evenodd" clip-rule="evenodd" d="M32.5025 35.0152C32.4992 35.0096 32.4992 35.0026 32.5025 34.9968L38.7888 24.2563C38.7921 24.2507 38.7981 24.2473 38.8046 24.2473H51.2644C51.2709 24.2473 51.2769 24.2508 51.2802 24.2564L57.4975 34.9969C57.5008 35.0026 57.5008 35.0095 57.4975 35.0151L51.2802 45.7436C51.2769 45.7492 51.2709 45.7527 51.2644 45.7527H38.8046C38.7981 45.7527 38.7921 45.7493 38.7888 45.7437L32.5025 35.0152ZM50.7919 35C50.7919 38.1977 48.1996 40.7899 45.002 40.7899C41.8043 40.7899 39.2121 38.1977 39.2121 35C39.2121 31.8023 41.8043 29.2101 45.002 29.2101C48.1996 29.2101 50.7919 31.8023 50.7919 35Z" fill="white"/>
</g>
</g>
<defs>
<filter id="filter0_d" x="0" y="0" width="90" height="90" filterUnits="userSpaceOnUse" color-interpolation-filters="sRGB">
<feFlood flood-opacity="0" result="BackgroundImageFix"/>
<feColorMatrix in="SourceAlpha" type="matrix" values="0 0 0 0 0 0 0 0 0 0 0 0 0 0 0 0 0 0 127 0"/>
<feOffset dy="10"/>
<feGaussianBlur stdDeviation="10"/>
<feColorMatrix type="matrix" values="0 0 0 0 0.254902 0 0 0 0 0.490196 0 0 0 0 0.603922 0 0 0 0.3 0"/>
<feBlend mode="normal" in2="BackgroundImageFix" result="effect1_dropShadow"/>
<feBlend mode="normal" in="SourceGraphic" in2="effect1_dropShadow" result="shape"/>
</filter>
<clipPath id="clip0">
<rect x="32.5" y="22.5" width="25" height="25" fill="white"/>
</clipPath>
</defs>
</svg>
