<svg width="90" height="90" viewBox="0 0 90 90" fill="none" xmlns="http://www.w3.org/2000/svg">
<g filter="url(#filter0_d)">
<path d="M20 35C20 21.1929 31.1929 10 45 10C58.8071 10 70 21.1929 70 35C70 48.8071 58.8071 60 45 60C31.1929 60 20 48.8071 20 35Z" fill="#A552CC"/>
<g clip-path="url(#clip0)">
<path fill-rule="evenodd" clip-rule="evenodd" d="M53.3897 41.7114C55.9143 39.6928 57.5 36.7762 57.5 33.5327C57.5 27.4395 51.9036 22.5 45 22.5C38.0964 22.5 32.5 27.4395 32.5 33.5327C32.5 36.6591 33.9733 39.4817 36.3406 41.4893C36.1971 41.9847 36.1184 42.5235 36.1184 43.0869C36.1184 45.5242 37.5912 47.5 39.4079 47.5C40.5884 47.5 41.6236 46.6658 42.204 45.4128C42.7843 46.6658 43.8195 47.5 45 47.5C46.0761 47.5 47.0314 46.8068 47.6316 45.7352C48.2317 46.8068 49.1871 47.5 50.2631 47.5C52.0799 47.5 53.5526 45.5242 53.5526 43.0869C53.5526 42.6066 53.4954 42.1442 53.3897 41.7114ZM52.2369 33.7515C52.2369 36.845 48.9231 39.3527 44.8355 39.3527C40.7479 39.3527 37.4342 36.845 37.4342 33.7515C37.4342 30.6581 40.7479 28.1503 44.8355 28.1503C48.9231 28.1503 52.2369 30.6581 52.2369 33.7515Z" fill="white"/>
</g>
</g>
<defs>
<filter id="filter0_d" x="0" y="0" width="90" height="90" filterUnits="userSpaceOnUse" color-interpolation-filters="sRGB">
<feFlood flood-opacity="0" result="BackgroundImageFix"/>
<feColorMatrix in="SourceAlpha" type="matrix" values="0 0 0 0 0 0 0 0 0 0 0 0 0 0 0 0 0 0 127 0"/>
<feOffset dy="10"/>
<feGaussianBlur stdDeviation="10"/>
<feColorMatrix type="matrix" values="0 0 0 0 0.647059 0 0 0 0 0.321569 0 0 0 0 0.8 0 0 0 0.3 0"/>
<feBlend mode="normal" in2="BackgroundImageFix" result="effect1_dropShadow"/>
<feBlend mode="normal" in="SourceGraphic" in2="effect1_dropShadow" result="shape"/>
</filter>
<clipPath id="clip0">
<rect x="32.5" y="22.5" width="25" height="25" fill="white"/>
</clipPath>
</defs>
</svg>
